<svg xmlns="http://www.w3.org/2000/svg" xmlns:xlink="http://www.w3.org/1999/xlink" viewBox="0 0 317.28 294.77"><defs><style>.cls-1{isolation:isolate;}.cls-2{fill:#77a3fc;}.cls-3{fill:url(#Degradado_sin_nombre_16);}.cls-4{fill:#a9bdea;}.cls-5{mix-blend-mode:screen;fill:url(#Degradado_sin_nombre_15);}.cls-6{fill:url(#Degradado_sin_nombre_14);}.cls-7{fill:#a3b9e8;}.cls-8{fill:#7b97c9;}.cls-9{fill:#90a9d6;}.cls-10{opacity:0.32;}.cls-10,.cls-12,.cls-64,.cls-69{mix-blend-mode:overlay;}.cls-11{fill:#fff;}.cls-12{fill:url(#Degradado_sin_nombre_9);}.cls-13{fill:#35e2e6;}.cls-14{fill:#6b38ff;}.cls-15{fill:#c3e0fe;}.cls-16{fill:#bedaff;}.cls-17{fill:url(#Degradado_sin_nombre_8);}.cls-18{fill:url(#Degradado_sin_nombre_8-2);}.cls-19{fill:url(#Degradado_sin_nombre_8-3);}.cls-20{fill:#fcb922;}.cls-21{fill:#ed9303;}.cls-22{fill:#ffeb57;}.cls-23{opacity:0.6;fill:url(#Degradado_sin_nombre_5);}.cls-24{fill:#150a25;}.cls-25{fill:#1d1130;}.cls-26{fill:#382759;}.cls-27{fill:#c5c2d3;}.cls-28{fill:#dcd8e5;}.cls-29{fill:#2ad3d0;}.cls-30{fill:#22a8a6;}.cls-31{fill:#ffe584;}.cls-32{fill:#2d0f58;}.cls-33{fill:#ebce73;}.cls-34{fill:#33088d;}.cls-35{fill:#361ca0;}.cls-36{fill:#300edd;}.cls-37{fill:#5a2bf7;}.cls-38{fill:#b08bfc;}.cls-39{fill:#ae70ff;}.cls-40{fill:#141f59;}.cls-41{fill:#161e93;}.cls-42{fill:#bebfbf;}.cls-43{fill:#a3a3a3;}.cls-44{fill:#adb8ff;}.cls-45{fill:#dee0df;}.cls-46{fill:#251e0a;}.cls-47{fill:#4725b7;}.cls-48{fill:#eaeaea;}.cls-49{fill:#f2f2f2;}.cls-50{fill:#8b7da0;}.cls-51{fill:#a79eba;}.cls-52{fill:#cecece;}.cls-53{fill:#d1cfd3;}.cls-54{fill:#e2e2e2;}.cls-55{fill:#110923;}.cls-56{fill:#ebf2ee;}.cls-57{fill:#3e246d;}.cls-58,.cls-59{mix-blend-mode:multiply;}.cls-59{fill:#bb8cfb;}.cls-59,.cls-64,.cls-69{opacity:0.5;}.cls-60{fill:#aefcc9;opacity:0.15;}.cls-61{fill:#4f3972;}.cls-62{fill:#23163a;}.cls-63{fill:#c5bfd1;}.cls-64{fill:url(#Degradado_sin_nombre_4);}.cls-65{fill:#f4a500;}.cls-66{fill:#ecc26f;}.cls-67{fill:#ebeded;}.cls-68{fill:#fff15e;}.cls-70{fill:url(#Degradado_sin_nombre_4-2);}.cls-71{fill:url(#Degradado_sin_nombre_4-3);}.cls-72{fill:url(#Degradado_sin_nombre_4-4);}.cls-73{fill:url(#Degradado_sin_nombre_4-5);}.cls-74{fill:url(#Degradado_sin_nombre_4-6);}.cls-75{fill:url(#Degradado_sin_nombre_4-7);}.cls-76{fill:url(#Degradado_sin_nombre_4-8);}.cls-77{fill:url(#Degradado_sin_nombre_4-9);}.cls-78{fill:url(#Degradado_sin_nombre_4-10);}.cls-79{fill:url(#Degradado_sin_nombre_4-11);}.cls-80,.cls-81,.cls-82{fill:none;stroke-miterlimit:10;}.cls-80{stroke:#5a2bf7;stroke-width:2px;}.cls-81,.cls-82{stroke:#b0f3ff;stroke-width:0.75px;}.cls-82{stroke-dasharray:3.02 3.02;}</style><linearGradient id="Degradado_sin_nombre_16" x1="75.13" y1="0.24" x2="13.16" y2="156.99" gradientUnits="userSpaceOnUse"><stop offset="0" stop-color="#c3e0fe"/><stop offset="0.06" stop-color="#c1ddfc"/><stop offset="0.65" stop-color="#abc3ee"/><stop offset="1" stop-color="#a3b9e8"/></linearGradient><linearGradient id="Degradado_sin_nombre_15" x1="59.66" y1="-22.1" x2="0.77" y2="139.25" gradientUnits="userSpaceOnUse"><stop offset="0" stop-color="#bedaff"/><stop offset="1" stop-color="#fff" stop-opacity="0"/></linearGradient><linearGradient id="Degradado_sin_nombre_14" x1="76.09" y1="-5.95" x2="-22.13" y2="254.21" gradientUnits="userSpaceOnUse"><stop offset="0" stop-color="#e4f2ff"/><stop offset="0.06" stop-color="#e1efff"/><stop offset="0.65" stop-color="#c7d7fb"/><stop offset="1" stop-color="#bdcefa"/></linearGradient><linearGradient id="Degradado_sin_nombre_9" x1="44.82" y1="4.13" x2="44.82" y2="132.06" gradientUnits="userSpaceOnUse"><stop offset="0" stop-color="#a9bdea"/><stop offset="1" stop-color="#fff" stop-opacity="0"/></linearGradient><linearGradient id="Degradado_sin_nombre_8" x1="55.27" y1="41.29" x2="33.58" y2="62.35" gradientUnits="userSpaceOnUse"><stop offset="0" stop-color="#fff"/><stop offset="0.12" stop-color="#f5f7fe" stop-opacity="0.84"/><stop offset="0.37" stop-color="#e1e9fd" stop-opacity="0.55"/><stop offset="0.59" stop-color="#d2ddfc" stop-opacity="0.31"/><stop offset="0.77" stop-color="#c6d5fb" stop-opacity="0.14"/><stop offset="0.91" stop-color="#c0d0fa" stop-opacity="0.04"/><stop offset="1" stop-color="#bdcefa" stop-opacity="0"/></linearGradient><linearGradient id="Degradado_sin_nombre_8-2" x1="54.49" y1="40.48" x2="32.8" y2="61.54" xlink:href="#Degradado_sin_nombre_8"/><linearGradient id="Degradado_sin_nombre_8-3" x1="53.45" y1="39.41" x2="31.76" y2="60.47" xlink:href="#Degradado_sin_nombre_8"/><linearGradient id="Degradado_sin_nombre_5" x1="94.48" y1="11.52" x2="32.51" y2="168.26" gradientUnits="userSpaceOnUse"><stop offset="0.01" stop-color="#4a84fb" stop-opacity="0.9"/><stop offset="1" stop-color="#62b3fb" stop-opacity="0.3"/></linearGradient><linearGradient id="Degradado_sin_nombre_4" x1="69.58" y1="96.69" x2="112.31" y2="73.89" gradientUnits="userSpaceOnUse"><stop offset="0.02" stop-color="#fff"/><stop offset="0.12" stop-color="#fff" stop-opacity="0.93"/><stop offset="0.31" stop-color="#fff" stop-opacity="0.75"/><stop offset="0.59" stop-color="#fff" stop-opacity="0.46"/><stop offset="0.92" stop-color="#fff" stop-opacity="0.07"/><stop offset="0.98" stop-color="#fff" stop-opacity="0"/></linearGradient><linearGradient id="Degradado_sin_nombre_4-2" x1="66.25" y1="76.46" x2="111.94" y2="51.91" xlink:href="#Degradado_sin_nombre_4"/><linearGradient id="Degradado_sin_nombre_4-3" x1="66.31" y1="76.58" x2="112" y2="52.03" xlink:href="#Degradado_sin_nombre_4"/><linearGradient id="Degradado_sin_nombre_4-4" x1="66.37" y1="76.69" x2="112.07" y2="52.15" xlink:href="#Degradado_sin_nombre_4"/><linearGradient id="Degradado_sin_nombre_4-5" x1="66.18" y1="76.34" x2="111.88" y2="51.8" xlink:href="#Degradado_sin_nombre_4"/><linearGradient id="Degradado_sin_nombre_4-6" x1="66.12" y1="76.23" x2="111.82" y2="51.68" xlink:href="#Degradado_sin_nombre_4"/><linearGradient id="Degradado_sin_nombre_4-7" x1="66.06" y1="76.11" x2="111.75" y2="51.56" xlink:href="#Degradado_sin_nombre_4"/><linearGradient id="Degradado_sin_nombre_4-8" x1="66" y1="75.99" x2="111.69" y2="51.45" xlink:href="#Degradado_sin_nombre_4"/><linearGradient id="Degradado_sin_nombre_4-9" x1="65.87" y1="75.76" x2="111.56" y2="51.21" xlink:href="#Degradado_sin_nombre_4"/><linearGradient id="Degradado_sin_nombre_4-10" x1="65.93" y1="75.88" x2="111.63" y2="51.33" xlink:href="#Degradado_sin_nombre_4"/><linearGradient id="Degradado_sin_nombre_4-11" x1="65.81" y1="75.64" x2="111.5" y2="51.1" xlink:href="#Degradado_sin_nombre_4"/></defs><title>alamcen</title><g class="cls-1"><g id="Capa_2" data-name="Capa 2"><g id="OBJECTS"><g class="cls-1"><polygon class="cls-2" points="0 128.71 28.74 112 310.1 273.21 281.36 289.91 0 128.71"/></g><polygon class="cls-2" points="273 294.77 317.28 269.04 316.74 294.77 273 294.77"/><path class="cls-3" d="M16.15,150.37V38c0-3.11,1.89-6.71,4.22-8.06L68.51,2.19c2.33-1.35,4.21.08,4.21,3.19V117.71c0,3.11-1.88,6.72-4.21,8.06L20.37,153.56C18,154.91,16.15,153.48,16.15,150.37Z"/><path class="cls-4" d="M71.28,2h0l-.09-.05Z"/><path class="cls-4" d="M17.3,153.56a4,4,0,0,1-1.15-3.19V38c0-3.11,1.89-6.71,4.22-8.06L68.51,2.19a2.73,2.73,0,0,1,2.68-.27L68.62.46a2.6,2.6,0,0,0-3,0L17.47,28.3c-2.33,1.34-4.22,4.95-4.22,8.05V148.69c0,1.86.68,3.11,1.73,3.53h0Z"/><polygon class="cls-4" points="17.98 153.95 17.99 153.96 17.99 153.96 17.98 153.95"/><path class="cls-5" d="M18,154ZM68.1,2.05,20,29.85c-2.32,1.34-4.21,4.95-4.21,8V150.24a4.33,4.33,0,0,0,.91,2.95l.64.37a4,4,0,0,1-1.15-3.19V38c0-3.11,1.89-6.71,4.22-8.06L68.51,2.19a3,3,0,0,1,2.16-.45A2.81,2.81,0,0,0,68.1,2.05Zm3.09-.12.09.05h0Z"/><path class="cls-6" d="M68.19,4.49l-8.3,4.8-1.25,3.13A7.33,7.33,0,0,1,55.76,16L33.12,29c-1.18.68-2.28.6-2.88-.23L29,27.13l-8.31,4.79A6,6,0,0,0,18,36.59V149.7c0,1.72,1.21,2.41,2.69,1.56l47.51-27.43a6,6,0,0,0,2.69-4.66V6.05C70.88,4.33,69.68,3.64,68.19,4.49Z"/><path class="cls-7" d="M51.79,15.94,37.08,24.43c-.26.16-.48,0-.48-.36h0a1.15,1.15,0,0,1,.48-.91l14.71-8.5c.27-.15.48,0,.48.36h0A1.13,1.13,0,0,1,51.79,15.94Z"/><path class="cls-8" d="M15,67.56l-.07,0a1.16,1.16,0,0,1-.49-.93V56.29c0-.35.22-.52.49-.37L15,56a1.17,1.17,0,0,1,.48.92V67.2C15.43,67.55,15.21,67.72,15,67.56Z"/><path class="cls-9" d="M14.41,67.56l-.07,0a1.16,1.16,0,0,1-.49-.93V56.29c0-.35.22-.52.49-.37l.07,0a1.14,1.14,0,0,1,.48.92V67.2C14.89,67.55,14.68,67.72,14.41,67.56Z"/><path class="cls-9" d="M62.34,3.79a.51.51,0,0,1,0,1,1.84,1.84,0,0,1-1.68,0c-.47-.27-.47-.7,0-1A1.84,1.84,0,0,1,62.34,3.79Z"/><path class="cls-8" d="M62.34,3.79a1.84,1.84,0,0,0-1.68,0,.8.8,0,0,0-.27.24l.1-.08a1.91,1.91,0,0,1,1.68,0c.35.2.44.49.27.74C62.79,4.42,62.76,4,62.34,3.79Z"/><g class="cls-10"><polygon class="cls-11" points="70.87 59.55 70.87 21.86 17.98 74.75 17.98 112.44 70.87 59.55"/><path class="cls-11" d="M18,63.67,70.87,10.78V6.05c0-1.72-1.21-2.41-2.69-1.56L63.93,7l-5.19,5.19-.11.28A7.35,7.35,0,0,1,55.74,16l-2,1.14L18,52.9Z"/><polygon class="cls-11" points="70.87 89.66 70.87 68.01 17.98 120.9 17.98 142.55 70.87 89.66"/><polygon class="cls-11" points="70.87 109.16 70.87 104.2 28.11 146.96 39.83 140.19 70.87 109.16"/></g><path class="cls-12" d="M55.76,16,33.12,29c-1.18.68-2.28.6-2.88-.23L29,27.13l-8.31,4.79A5.6,5.6,0,0,0,18.75,34a5,5,0,0,1,1.39-1.26l8.31-4.79,1.25,1.68c.6.82,1.7.91,2.88.23L55.22,16.78a6.9,6.9,0,0,0,2.37-2.5A6.44,6.44,0,0,1,55.76,16ZM68.19,4.49l-8.3,4.8-.26.65,8-4.64c1.49-.85,2.69-.16,2.69,1.56V120a5.45,5.45,0,0,1-.75,2.6,5.85,5.85,0,0,0,1.29-3.4V6.05C70.88,4.33,69.68,3.64,68.19,4.49Z"/><path class="cls-13" d="M65.75,118.58,23.94,142.72c-1.63.94-3-.07-3-2.24V117.64a7.1,7.1,0,0,1,3-5.65L65.75,87.85c1.63-.94,3,.06,3,2.23v22.85A7.1,7.1,0,0,1,65.75,118.58Z"/><path class="cls-14" d="M68.77,21.87V19.79c0-1.79-1.26-2.52-2.81-1.62L23.79,42.51A6.23,6.23,0,0,0,21,47.38v2.08Z"/><path class="cls-13" d="M25.94,43.93a2.49,2.49,0,0,1-1.13,2c-.62.36-1.13.07-1.13-.65a2.51,2.51,0,0,1,1.13-2C25.44,42.92,25.94,43.21,25.94,43.93Z"/><path class="cls-13" d="M29.92,41.64a2.5,2.5,0,0,1-1.13,2c-.63.37-1.13.07-1.13-.65a2.49,2.49,0,0,1,1.13-2C29.41,40.62,29.92,40.91,29.92,41.64Z"/><path class="cls-13" d="M33.89,39.34a2.49,2.49,0,0,1-1.13,2c-.62.36-1.13.07-1.13-.65a2.51,2.51,0,0,1,1.13-2C33.39,38.33,33.89,38.62,33.89,39.34Z"/><polygon class="cls-15" points="68.77 82.99 21.34 110.37 21.34 109.31 68.77 81.93 68.77 82.99"/><polygon class="cls-15" points="68.77 69.52 21.34 96.9 21.34 95.84 68.77 68.46 68.77 69.52"/><path class="cls-16" d="M49.13,90.68l-8.57,4.95c-.7.4-1.26,0-1.26-.95V91.14a3,3,0,0,1,1.26-2.4l8.57-4.95c.7-.4,1.26,0,1.26.95v3.54A3,3,0,0,1,49.13,90.68Z"/><path class="cls-16" d="M32.4,100.18l-8.57,4.95c-.7.4-1.26,0-1.26-.95v-3.55a3,3,0,0,1,1.26-2.4l8.57-5c.69-.4,1.26,0,1.26,1v3.55A3,3,0,0,1,32.4,100.18Z"/><path class="cls-16" d="M65,81.55l-8.58,5c-.69.4-1.25,0-1.25-1V82a3,3,0,0,1,1.25-2.4L65,74.65c.69-.4,1.25,0,1.25.95v3.55A3,3,0,0,1,65,81.55Z"/><polygon class="cls-15" points="68.77 69.6 21.34 96.98 21.34 95.92 68.77 68.54 68.77 69.6"/><polygon class="cls-15" points="68.77 56.13 21.34 83.51 21.34 82.45 68.77 55.07 68.77 56.13"/><path class="cls-16" d="M49.13,77.29l-8.57,4.95c-.7.4-1.26,0-1.26-.95V77.75a3,3,0,0,1,1.26-2.4l8.57-4.95c.7-.41,1.26,0,1.26.94v3.55A3,3,0,0,1,49.13,77.29Z"/><path class="cls-16" d="M32.4,86.79l-8.57,4.95c-.7.4-1.26,0-1.26-.95V87.24a3,3,0,0,1,1.26-2.4l8.57-5c.69-.4,1.26,0,1.26,1v3.55A3,3,0,0,1,32.4,86.79Z"/><path class="cls-16" d="M65,68.16l-8.58,5c-.69.4-1.25,0-1.25-1V68.61a3,3,0,0,1,1.25-2.4L65,61.26c.69-.4,1.25,0,1.25,1v3.55A3,3,0,0,1,65,68.16Z"/><polygon class="cls-15" points="68.77 56.13 21.34 83.51 21.34 82.45 68.77 55.07 68.77 56.13"/><polygon class="cls-15" points="68.77 42.66 21.34 70.04 21.34 68.98 68.77 41.6 68.77 42.66"/><path class="cls-16" d="M49.13,63.82l-8.57,4.95c-.7.4-1.26,0-1.26-.94V64.28a3,3,0,0,1,1.26-2.4l8.57-5c.7-.4,1.26,0,1.26,1v3.54A3,3,0,0,1,49.13,63.82Z"/><path class="cls-16" d="M32.4,73.32l-8.57,5c-.7.4-1.26,0-1.26-1V73.77a3,3,0,0,1,1.26-2.4l8.57-5c.69-.4,1.26,0,1.26,1v3.55A3,3,0,0,1,32.4,73.32Z"/><path class="cls-16" d="M65,54.69l-8.58,5c-.69.4-1.25,0-1.25-1V55.14a3,3,0,0,1,1.25-2.4l8.58-5c.69-.4,1.25,0,1.25,1v3.55A3,3,0,0,1,65,54.69Z"/><path class="cls-15" d="M67.06,40.85l-24.28,14c-.91.53-1.65,0-1.65-1.24V47.36a3.93,3.93,0,0,1,1.65-3.14l24.28-14c.91-.52,1.64,0,1.64,1.24v6.27A3.92,3.92,0,0,1,67.06,40.85Z"/><path class="cls-17" d="M51.93,46.88l-9.19,5.3c-.22.13-.39,0-.39-.3v0a1,1,0,0,1,.39-.76l9.19-5.3c.22-.13.4,0,.4.3v0A1,1,0,0,1,51.93,46.88Z"/><path class="cls-18" d="M54.52,43.3,42.74,50.11c-.22.12-.39,0-.39-.3v0a.92.92,0,0,1,.39-.75l11.78-6.8c.22-.13.4,0,.4.29v0A.93.93,0,0,1,54.52,43.3Z"/><path class="cls-19" d="M54.52,41.23,42.74,48c-.22.12-.39,0-.39-.3v0a.92.92,0,0,1,.39-.75l11.78-6.8c.22-.13.4,0,.4.3v0A1,1,0,0,1,54.52,41.23Z"/><path class="cls-20" d="M38.59,116.28v-1l1.74-1v1c1.52-.56,2.29.15,2.29,2v.43l-2,1.16v-.56c0-1-.39-1.11-1.07-.72a2,2,0,0,0-1.07,2c0,2.79,4.17.52,4.17,4.4a5.79,5.79,0,0,1-2.31,4.67v1l-1.74,1v-1c-1.53.58-2.31-.16-2.31-2v-.93l2-1.16v1.06c0,1,.43,1.07,1.11.68a2.08,2.08,0,0,0,1.1-1.95c0-2.79-4.17-.52-4.17-4.4A5.73,5.73,0,0,1,38.59,116.28Z"/><path class="cls-20" d="M38.49,116.22v-1l1.74-1v1c1.52-.56,2.29.15,2.29,2v.43l-2,1.16v-.56c0-1-.39-1.11-1.07-.72a2,2,0,0,0-1.07,1.95c0,2.79,4.17.52,4.17,4.4a5.79,5.79,0,0,1-2.31,4.67v1l-1.74,1v-1c-1.53.58-2.31-.16-2.31-2v-.93l2-1.16v1.06c0,1,.43,1.08,1.1.68a2.07,2.07,0,0,0,1.11-2c0-2.79-4.17-.52-4.17-4.4A5.73,5.73,0,0,1,38.49,116.22Z"/><path class="cls-20" d="M38.39,116.16v-1l1.74-1v1c1.51-.56,2.29.15,2.29,2v.42l-2,1.17v-.57c0-1-.38-1.11-1.06-.72a2.06,2.06,0,0,0-1.07,2c0,2.79,4.17.52,4.17,4.39a5.82,5.82,0,0,1-2.31,4.67v1l-1.74,1v-1c-1.53.57-2.31-.17-2.31-2v-.93l2-1.16v1.06c0,1,.42,1.08,1.1.69a2.1,2.1,0,0,0,1.11-2c0-2.79-4.17-.52-4.17-4.4A5.73,5.73,0,0,1,38.39,116.16Z"/><path class="cls-20" d="M38.29,116.1v-1l1.74-1v1c1.51-.56,2.29.15,2.29,2v.42l-2,1.17v-.57c0-1-.38-1.11-1.06-.72a2.06,2.06,0,0,0-1.07,2c0,2.79,4.17.52,4.17,4.39A5.8,5.8,0,0,1,40,128.41v1l-1.74,1v-1c-1.54.57-2.31-.16-2.31-2v-.93l2-1.16v1.07c0,1,.42,1.07,1.1.68a2.1,2.1,0,0,0,1.11-2c0-2.79-4.17-.52-4.17-4.4A5.7,5.7,0,0,1,38.29,116.1Z"/><path class="cls-20" d="M38.18,116v-1l1.75-1v1c1.51-.56,2.29.16,2.29,2v.42l-2,1.17v-.56c0-1-.39-1.12-1.06-.73a2.07,2.07,0,0,0-1.07,2c0,2.79,4.17.52,4.17,4.39a5.79,5.79,0,0,1-2.31,4.67v1l-1.75,1v-1c-1.53.57-2.3-.16-2.3-2v-.93l2-1.17v1.07c0,1,.43,1.07,1.11.68a2.08,2.08,0,0,0,1.1-2c0-2.79-4.16-.52-4.16-4.4A5.72,5.72,0,0,1,38.18,116Z"/><path class="cls-20" d="M38.08,116v-1l1.75-1v1c1.51-.57,2.29.15,2.29,2v.43l-2,1.16V118c0-1-.39-1.12-1.07-.72a2,2,0,0,0-1.06,2c0,2.79,4.16.52,4.16,4.4a5.78,5.78,0,0,1-2.3,4.66v1l-1.75,1v-1c-1.53.57-2.3-.16-2.3-2v-.93l2-1.17v1.07c0,1,.43,1.07,1.11.68a2.08,2.08,0,0,0,1.1-2c0-2.79-4.17-.52-4.17-4.39A5.74,5.74,0,0,1,38.08,116Z"/><path class="cls-20" d="M38,115.92v-1l1.75-1v1c1.51-.57,2.28.15,2.28,2v.43l-2,1.16v-.56c0-1-.39-1.12-1.07-.72a2,2,0,0,0-1.07,2c0,2.79,4.17.52,4.17,4.4a5.78,5.78,0,0,1-2.3,4.66v1l-1.75,1v-1c-1.53.57-2.3-.16-2.3-2v-.93l2-1.17v1.07c0,1,.43,1.07,1.11.68a2.1,2.1,0,0,0,1.1-2c0-2.79-4.17-.52-4.17-4.39A5.75,5.75,0,0,1,38,115.92Z"/><path class="cls-20" d="M37.88,115.87v-1l1.74-1v1c1.52-.57,2.29.15,2.29,2v.43l-2,1.16v-.56c0-1-.39-1.11-1.07-.72a2,2,0,0,0-1.07,2c0,2.79,4.17.52,4.17,4.4a5.79,5.79,0,0,1-2.31,4.67v1l-1.74,1v-1c-1.53.58-2.31-.16-2.31-2v-.93l2-1.16v1.06c0,1,.43,1.07,1.1.68a2.08,2.08,0,0,0,1.11-2c0-2.8-4.17-.53-4.17-4.4A5.73,5.73,0,0,1,37.88,115.87Z"/><path class="cls-20" d="M37.78,115.81v-1l1.74-1v1c1.51-.56,2.29.15,2.29,2v.43l-2,1.16v-.56c0-1-.38-1.11-1.06-.72a2,2,0,0,0-1.07,2c0,2.79,4.17.52,4.17,4.4a5.82,5.82,0,0,1-2.31,4.67v1l-1.74,1v-1c-1.53.58-2.31-.16-2.31-2v-.93l2-1.16v1.06c0,1,.42,1.07,1.1.68a2.07,2.07,0,0,0,1.11-2c0-2.79-4.17-.52-4.17-4.4A5.73,5.73,0,0,1,37.78,115.81Z"/><path class="cls-20" d="M37.68,115.75v-1l1.74-1v1c1.51-.56,2.29.15,2.29,2v.43l-2,1.17v-.57c0-1-.38-1.11-1.06-.72A2,2,0,0,0,37.56,119c0,2.8,4.17.52,4.17,4.4a5.82,5.82,0,0,1-2.31,4.67v1l-1.74,1v-1c-1.53.58-2.31-.16-2.31-2v-.93l2-1.16V126c0,1,.42,1.08,1.1.68a2.07,2.07,0,0,0,1.11-1.95c0-2.79-4.17-.52-4.17-4.4A5.7,5.7,0,0,1,37.68,115.75Z"/><path class="cls-20" d="M37.57,115.69v-1l1.75-1v1c1.51-.56,2.29.15,2.29,2v.42l-2,1.17v-.57c0-1-.39-1.11-1.06-.72a2.06,2.06,0,0,0-1.07,2c0,2.79,4.17.52,4.17,4.39A5.82,5.82,0,0,1,39.32,128v1l-1.75,1v-1c-1.53.57-2.3-.17-2.3-2v-.93l2-1.16V126c0,1,.43,1.07,1.11.68a2.09,2.09,0,0,0,1.1-2c0-2.79-4.16-.52-4.16-4.4A5.72,5.72,0,0,1,37.57,115.69Z"/><path class="cls-20" d="M37.47,115.63v-1l1.75-1v1c1.51-.56,2.29.16,2.29,2V117l-2,1.17v-.56c0-1-.39-1.12-1.07-.73a2.05,2.05,0,0,0-1.06,2c0,2.79,4.16.52,4.16,4.39a5.78,5.78,0,0,1-2.3,4.67v1l-1.75,1v-1c-1.53.57-2.3-.16-2.3-2V126l2-1.16v1.07c0,1,.43,1.07,1.11.68a2.09,2.09,0,0,0,1.1-2c0-2.79-4.17-.52-4.17-4.4A5.73,5.73,0,0,1,37.47,115.63Z"/><path class="cls-20" d="M37.37,115.57v-1l1.75-1v1c1.51-.56,2.28.16,2.28,2V117l-2,1.17v-.56c0-1-.39-1.12-1.07-.73a2.06,2.06,0,0,0-1.06,2c0,2.79,4.16.52,4.16,4.39a5.78,5.78,0,0,1-2.3,4.67v1l-1.75,1v-1c-1.53.57-2.3-.16-2.3-2V126l2-1.17v1.07c0,1,.43,1.07,1.11.68a2.1,2.1,0,0,0,1.1-2c0-2.79-4.17-.52-4.17-4.4A5.73,5.73,0,0,1,37.37,115.57Z"/><path class="cls-20" d="M37.27,115.51v-1l1.74-1v1c1.52-.57,2.29.15,2.29,2v.43l-2,1.16v-.56c0-1-.39-1.12-1.07-.72a2,2,0,0,0-1.07,2c0,2.79,4.17.52,4.17,4.4A5.76,5.76,0,0,1,39,127.82v1l-1.74,1v-1c-1.53.57-2.31-.16-2.31-2v-.93l2-1.17v1.07c0,1,.43,1.07,1.1.68a2.09,2.09,0,0,0,1.11-2c0-2.79-4.17-.52-4.17-4.39A5.74,5.74,0,0,1,37.27,115.51Z"/><path class="cls-20" d="M37.17,115.45v-1l1.74-1v1c1.51-.57,2.29.15,2.29,2v.43l-2,1.16v-.56c0-1-.38-1.12-1.06-.72a2,2,0,0,0-1.07,2c0,2.79,4.17.52,4.17,4.4a5.79,5.79,0,0,1-2.31,4.66v1l-1.74,1v-1c-1.53.57-2.31-.16-2.31-2v-.93l2-1.17v1.07c0,1,.42,1.07,1.1.68a2.09,2.09,0,0,0,1.11-2c0-2.79-4.17-.52-4.17-4.39A5.75,5.75,0,0,1,37.17,115.45Z"/><path class="cls-20" d="M37.07,115.4v-1l1.74-1v1c1.51-.56,2.29.15,2.29,2v.43l-2,1.16v-.56c0-1-.38-1.11-1.06-.72a2,2,0,0,0-1.07,2c0,2.79,4.17.52,4.17,4.4a5.82,5.82,0,0,1-2.31,4.67v1l-1.74,1v-1c-1.53.58-2.31-.16-2.31-2v-.93l2-1.16v1.06c0,1,.42,1.07,1.1.68a2.08,2.08,0,0,0,1.11-2c0-2.8-4.17-.53-4.17-4.4A5.7,5.7,0,0,1,37.07,115.4Z"/><path class="cls-20" d="M37,115.34v-1l1.75-1v1c1.51-.56,2.29.15,2.29,2v.43l-2,1.16v-.56c0-1-.39-1.11-1.06-.72a2,2,0,0,0-1.07,2c0,2.79,4.17.52,4.17,4.4a5.82,5.82,0,0,1-2.31,4.67v1l-1.75,1v-1c-1.53.58-2.3-.16-2.3-2v-.93l2-1.16v1.06c0,1,.43,1.07,1.11.68a2.06,2.06,0,0,0,1.1-2c0-2.79-4.16-.52-4.16-4.4A5.72,5.72,0,0,1,37,115.34Z"/><path class="cls-20" d="M36.86,115.28v-1l1.75-1v1c1.51-.56,2.29.15,2.29,2v.43l-2,1.17v-.57c0-1-.39-1.11-1.07-.72a2.05,2.05,0,0,0-1.06,2c0,2.8,4.17.52,4.17,4.4a5.82,5.82,0,0,1-2.31,4.67v1l-1.75,1v-1c-1.53.57-2.3-.17-2.3-2v-.93l2-1.16v1.06c0,1,.43,1.08,1.11.68a2.06,2.06,0,0,0,1.1-1.95c0-2.79-4.17-.52-4.17-4.4A5.73,5.73,0,0,1,36.86,115.28Z"/><path class="cls-20" d="M36.76,115.22v-1l1.75-1v1c1.51-.56,2.28.15,2.28,2v.42l-2,1.17v-.57c0-1-.39-1.11-1.07-.72a2.05,2.05,0,0,0-1.06,2c0,2.79,4.16.52,4.16,4.39a5.8,5.8,0,0,1-2.3,4.67v1l-1.75,1v-1c-1.53.57-2.3-.17-2.3-2v-.93l2-1.16v1.07c0,1,.43,1.07,1.11.68a2.11,2.11,0,0,0,1.1-2c0-2.79-4.17-.52-4.17-4.4A5.73,5.73,0,0,1,36.76,115.22Z"/><path class="cls-20" d="M36.66,115.16v-1l1.74-1v1c1.52-.56,2.29.16,2.29,2v.42l-2,1.17v-.56c0-1-.39-1.12-1.07-.73a2.06,2.06,0,0,0-1.07,2c0,2.79,4.17.52,4.17,4.39a5.76,5.76,0,0,1-2.31,4.67v1l-1.74,1v-1c-1.53.57-2.31-.16-2.31-2v-.93l2-1.16v1.07c0,1,.43,1.07,1.1.68a2.1,2.1,0,0,0,1.11-2c0-2.79-4.17-.52-4.17-4.4A5.73,5.73,0,0,1,36.66,115.16Z"/><path class="cls-20" d="M36.56,115.1v-1l1.74-1v1c1.52-.56,2.29.16,2.29,2v.42l-2,1.17v-.56c0-1-.38-1.12-1.06-.73a2.07,2.07,0,0,0-1.07,2c0,2.79,4.17.52,4.17,4.39a5.76,5.76,0,0,1-2.31,4.67v1l-1.74,1v-1c-1.53.57-2.31-.16-2.31-2v-.93l2-1.17v1.07c0,1,.42,1.07,1.1.68a2.09,2.09,0,0,0,1.11-2c0-2.79-4.17-.52-4.17-4.4A5.73,5.73,0,0,1,36.56,115.1Z"/><path class="cls-20" d="M36.46,115v-1l1.74-1v1c1.51-.57,2.29.15,2.29,2v.43l-2,1.16v-.56c0-1-.38-1.12-1.06-.72a2,2,0,0,0-1.07,2c0,2.79,4.17.52,4.17,4.4a5.79,5.79,0,0,1-2.31,4.66v1l-1.74,1v-1c-1.53.57-2.31-.16-2.31-2v-.93l2-1.17v1.07c0,1,.42,1.07,1.1.68a2.09,2.09,0,0,0,1.11-2c0-2.79-4.17-.52-4.17-4.39A5.71,5.71,0,0,1,36.46,115Z"/><path class="cls-20" d="M36.35,115v-1l1.75-1v1c1.51-.57,2.29.15,2.29,2v.43l-2,1.16V117c0-1-.39-1.11-1.06-.72a2,2,0,0,0-1.07,2c0,2.79,4.17.52,4.17,4.4a5.79,5.79,0,0,1-2.31,4.66v1l-1.75,1v-1c-1.53.57-2.3-.16-2.3-2v-.93l2-1.17v1.07c0,1,.43,1.07,1.11.68a2.08,2.08,0,0,0,1.1-2c0-2.79-4.16-.52-4.16-4.39A5.74,5.74,0,0,1,36.35,115Z"/><path class="cls-20" d="M36.25,114.93v-1l1.75-1v1c1.51-.56,2.29.15,2.29,2v.43l-2,1.16v-.56c0-1-.39-1.11-1.07-.72a2.05,2.05,0,0,0-1.06,2c0,2.79,4.17.52,4.17,4.4A5.82,5.82,0,0,1,38,127.24v1l-1.75,1v-1c-1.53.58-2.3-.16-2.3-2v-.93l2-1.16v1.06c0,1,.43,1.07,1.11.68a2.07,2.07,0,0,0,1.1-2c0-2.8-4.16-.53-4.16-4.4A5.72,5.72,0,0,1,36.25,114.93Z"/><path class="cls-20" d="M36.15,114.87v-1l1.75-1v1c1.51-.56,2.28.15,2.28,2v.43l-2,1.16v-.56c0-1-.39-1.11-1.07-.72a2,2,0,0,0-1.06,2c0,2.79,4.16.52,4.16,4.4a5.81,5.81,0,0,1-2.3,4.67v1l-1.75,1v-1c-1.53.58-2.3-.16-2.3-2v-.93l2-1.16v1.06c0,1,.43,1.07,1.11.68a2.08,2.08,0,0,0,1.1-2c0-2.79-4.17-.52-4.17-4.4A5.73,5.73,0,0,1,36.15,114.87Z"/><path class="cls-20" d="M36.05,114.81v-1l1.74-1v1c1.52-.56,2.29.15,2.29,2v.43l-2,1.17v-.57c0-1-.39-1.11-1.07-.72a2,2,0,0,0-1.07,2c0,2.8,4.17.52,4.17,4.4a5.79,5.79,0,0,1-2.31,4.67v1l-1.74,1v-1c-1.53.57-2.31-.17-2.31-2v-.93l2-1.16v1.06c0,1,.43,1.08,1.1.68a2.07,2.07,0,0,0,1.11-2c0-2.79-4.17-.52-4.17-4.4A5.73,5.73,0,0,1,36.05,114.81Z"/><path class="cls-20" d="M36,114.75v-1l1.74-1v1c1.52-.56,2.29.15,2.29,2v.42l-2,1.17v-.57c0-1-.39-1.11-1.07-.72a2.06,2.06,0,0,0-1.07,2c0,2.79,4.17.52,4.17,4.39a5.78,5.78,0,0,1-2.31,4.67v1l-1.74,1v-1c-1.53.57-2.31-.16-2.31-2v-.93l2-1.16V125c0,1,.43,1.07,1.1.68a2.1,2.1,0,0,0,1.11-2c0-2.79-4.17-.52-4.17-4.4A5.73,5.73,0,0,1,36,114.75Z"/><path class="cls-20" d="M35.85,114.69v-1l1.74-1v1c1.51-.56,2.29.16,2.29,2v.42l-2,1.17v-.56c0-1-.38-1.12-1.06-.73a2.06,2.06,0,0,0-1.07,2c0,2.79,4.17.52,4.17,4.39A5.79,5.79,0,0,1,37.59,127v1l-1.74,1v-1c-1.53.57-2.31-.16-2.31-2v-.92l2-1.17V125c0,1,.42,1.07,1.1.68a2.1,2.1,0,0,0,1.11-2c0-2.79-4.17-.52-4.17-4.4A5.73,5.73,0,0,1,35.85,114.69Z"/><path class="cls-20" d="M35.75,114.63v-1l1.74-1v1c1.51-.57,2.29.15,2.29,2v.43l-2,1.16v-.56c0-1-.39-1.12-1.06-.73a2.07,2.07,0,0,0-1.07,2c0,2.79,4.17.52,4.17,4.39a5.79,5.79,0,0,1-2.31,4.67v1l-1.74,1v-1c-1.54.57-2.31-.16-2.31-2V125l2-1.17v1.07c0,1,.42,1.07,1.1.68a2.09,2.09,0,0,0,1.11-2c0-2.79-4.17-.52-4.17-4.4A5.7,5.7,0,0,1,35.75,114.63Z"/><path class="cls-20" d="M35.64,114.57v-1l1.75-1v1c1.51-.57,2.29.15,2.29,2V116l-2,1.16v-.56c0-1-.39-1.12-1.07-.72a2.05,2.05,0,0,0-1.06,1.95c0,2.79,4.17.52,4.17,4.4a5.79,5.79,0,0,1-2.31,4.66v1l-1.75,1v-1c-1.53.57-2.3-.16-2.3-2V125l2-1.17v1.07c0,1,.43,1.07,1.11.68a2.08,2.08,0,0,0,1.1-2c0-2.79-4.16-.52-4.16-4.39A5.73,5.73,0,0,1,35.64,114.57Z"/><path class="cls-20" d="M35.54,114.51v-1l1.75-1v1c1.51-.57,2.28.15,2.28,2v.43l-2,1.16v-.56c0-1-.39-1.11-1.07-.72a2,2,0,0,0-1.06,2c0,2.79,4.16.52,4.16,4.4a5.78,5.78,0,0,1-2.3,4.66v1l-1.75,1v-1c-1.53.57-2.3-.16-2.3-2v-.93l2-1.17v1.07c0,1,.43,1.07,1.11.68a2.08,2.08,0,0,0,1.1-2c0-2.79-4.17-.52-4.17-4.39A5.75,5.75,0,0,1,35.54,114.51Z"/><path class="cls-20" d="M35.44,114.46v-1l1.74-1v1c1.52-.56,2.29.15,2.29,2v.43l-2,1.16v-.56c0-1-.39-1.11-1.07-.72a2,2,0,0,0-1.07,2c0,2.79,4.17.52,4.17,4.4a5.79,5.79,0,0,1-2.31,4.67v1l-1.74,1v-1c-1.53.58-2.31-.16-2.31-2v-.93l2-1.16v1.06c0,1,.43,1.07,1.11.68a2.09,2.09,0,0,0,1.1-2c0-2.8-4.17-.52-4.17-4.4A5.73,5.73,0,0,1,35.44,114.46Z"/><polygon class="cls-21" points="38.59 115.27 35.44 113.45 37.19 112.44 40.34 114.26 38.59 115.27"/><path class="cls-21" d="M40.61,118.85,39,118s.68-.6,1.14-.58S40.62,118.16,40.61,118.85Z"/><polygon class="cls-21" points="38.3 125.5 35.15 123.68 33.13 124.84 36.28 126.66 38.3 125.5"/><path class="cls-21" d="M38.59,130.58l-3.15-1.82v-.06s1.58.93,1.74,1a1.76,1.76,0,0,0,1.41-.1Z"/><path class="cls-22" d="M38.59,116.28v-1l1.74-1v1c1.52-.56,2.29.15,2.29,2v.43l-2,1.16v-.56c0-1-.39-1.11-1.07-.72a2,2,0,0,0-1.07,2c0,2.79,4.17.52,4.17,4.4a5.79,5.79,0,0,1-2.31,4.67v1l-1.74,1v-1c-1.53.58-2.31-.16-2.31-2v-.93l2-1.16v1.06c0,1,.43,1.07,1.11.68a2.08,2.08,0,0,0,1.1-1.95c0-2.79-4.17-.52-4.17-4.4A5.73,5.73,0,0,1,38.59,116.28Z"/><path class="cls-20" d="M48,110.82v-1l1.74-1v1c1.52-.56,2.29.15,2.29,2v.42l-2,1.17v-.56c0-1-.39-1.12-1.07-.73a2.06,2.06,0,0,0-1.07,2c0,2.79,4.17.52,4.17,4.39a5.78,5.78,0,0,1-2.31,4.67v1l-1.74,1v-1c-1.53.57-2.31-.16-2.31-2v-.93l2-1.16v1.07c0,1,.43,1.07,1.1.68a2.1,2.1,0,0,0,1.11-2c0-2.79-4.17-.52-4.17-4.4A5.73,5.73,0,0,1,48,110.82Z"/><path class="cls-20" d="M47.94,110.76v-1l1.74-1v1c1.51-.56,2.29.16,2.29,2v.42l-2,1.17v-.56c0-1-.38-1.12-1.06-.73a2.07,2.07,0,0,0-1.07,2c0,2.79,4.17.52,4.17,4.39a5.79,5.79,0,0,1-2.31,4.67v1l-1.74,1v-1c-1.53.57-2.31-.16-2.31-2v-.93l2-1.17v1.07c0,1,.42,1.07,1.1.68a2.09,2.09,0,0,0,1.11-2c0-2.79-4.17-.52-4.17-4.4A5.73,5.73,0,0,1,47.94,110.76Z"/><path class="cls-20" d="M47.84,110.7v-1l1.74-1v1c1.51-.57,2.29.15,2.29,2v.43l-2,1.16v-.56c0-1-.38-1.12-1.06-.73a2.07,2.07,0,0,0-1.07,2c0,2.79,4.17.52,4.17,4.4A5.79,5.79,0,0,1,49.58,123v1l-1.74,1v-1c-1.53.57-2.31-.16-2.31-2v-.93l2-1.17V121c0,1,.42,1.07,1.1.68a2.09,2.09,0,0,0,1.11-2c0-2.79-4.17-.52-4.17-4.39A5.71,5.71,0,0,1,47.84,110.7Z"/><path class="cls-20" d="M47.73,110.64v-1l1.75-1v1c1.51-.57,2.29.15,2.29,2v.43l-2,1.16v-.56c0-1-.39-1.11-1.06-.72a2,2,0,0,0-1.07,2c0,2.79,4.17.52,4.17,4.4A5.79,5.79,0,0,1,49.48,123v1l-1.75,1v-1c-1.53.57-2.3-.16-2.3-2V121l2-1.17v1.07c0,1,.43,1.07,1.11.68a2.08,2.08,0,0,0,1.1-2c0-2.79-4.16-.52-4.16-4.39A5.74,5.74,0,0,1,47.73,110.64Z"/><path class="cls-20" d="M47.63,110.59v-1l1.75-1v1c1.51-.57,2.29.15,2.29,2V112l-2,1.16v-.56c0-1-.39-1.11-1.07-.72a2,2,0,0,0-1.06,2c0,2.79,4.16.52,4.16,4.4a5.81,5.81,0,0,1-2.3,4.67v1l-1.75,1v-1c-1.53.58-2.3-.16-2.3-2V121l2-1.16v1.06c0,1,.43,1.07,1.11.68a2.07,2.07,0,0,0,1.1-2c0-2.8-4.17-.53-4.17-4.4A5.73,5.73,0,0,1,47.63,110.59Z"/><path class="cls-20" d="M47.53,110.53v-1l1.75-1v1c1.51-.56,2.28.15,2.28,2v.43l-2,1.16v-.56c0-1-.39-1.11-1.07-.72a2,2,0,0,0-1.06,2c0,2.79,4.16.52,4.16,4.4a5.81,5.81,0,0,1-2.3,4.67v1l-1.75,1v-1c-1.53.58-2.3-.16-2.3-2v-.93l2-1.16v1.06c0,1,.43,1.07,1.11.68a2.08,2.08,0,0,0,1.1-1.95c0-2.79-4.17-.52-4.17-4.4A5.73,5.73,0,0,1,47.53,110.53Z"/><path class="cls-20" d="M47.43,110.47v-1l1.74-1v1c1.52-.56,2.29.15,2.29,2v.43l-2,1.17v-.57c0-1-.39-1.11-1.07-.72a2,2,0,0,0-1.07,1.95c0,2.8,4.17.52,4.17,4.4a5.79,5.79,0,0,1-2.31,4.67v1l-1.74,1v-1c-1.53.57-2.31-.17-2.31-2v-.93l2-1.16v1.06c0,1,.43,1.08,1.1.68a2.07,2.07,0,0,0,1.11-2c0-2.79-4.17-.52-4.17-4.4A5.73,5.73,0,0,1,47.43,110.47Z"/><path class="cls-20" d="M47.33,110.41v-1l1.74-1v1c1.52-.56,2.29.15,2.29,2v.42l-2,1.17v-.57c0-1-.38-1.11-1.06-.72a2.06,2.06,0,0,0-1.07,2c0,2.79,4.17.52,4.17,4.39a5.78,5.78,0,0,1-2.31,4.67v1l-1.74,1v-1c-1.53.57-2.31-.16-2.31-2v-.93l2-1.16v1.07c0,1,.42,1.07,1.1.68a2.1,2.1,0,0,0,1.11-2c0-2.79-4.17-.52-4.17-4.4A5.73,5.73,0,0,1,47.33,110.41Z"/><path class="cls-20" d="M47.23,110.35v-1l1.74-1v1c1.51-.56,2.29.15,2.29,2v.42l-2,1.17v-.56c0-1-.38-1.12-1.06-.73a2.06,2.06,0,0,0-1.07,2c0,2.79,4.17.52,4.17,4.39A5.79,5.79,0,0,1,49,122.66v1l-1.74,1v-1c-1.53.57-2.31-.16-2.31-2v-.93l2-1.16v1.07c0,1,.42,1.07,1.1.68a2.1,2.1,0,0,0,1.11-2c0-2.79-4.17-.52-4.17-4.4A5.7,5.7,0,0,1,47.23,110.35Z"/><path class="cls-20" d="M47.12,110.29v-1l1.75-1v1c1.51-.56,2.29.16,2.29,2v.42l-2,1.17v-.56c0-1-.39-1.12-1.06-.73a2.07,2.07,0,0,0-1.07,2c0,2.79,4.17.52,4.17,4.39a5.79,5.79,0,0,1-2.31,4.67v1l-1.75,1v-1c-1.53.57-2.3-.16-2.3-2v-.93l2-1.17v1.07c0,1,.43,1.07,1.11.68a2.08,2.08,0,0,0,1.1-2c0-2.79-4.16-.52-4.16-4.4A5.72,5.72,0,0,1,47.12,110.29Z"/><path class="cls-20" d="M47,110.23v-1l1.75-1v1c1.51-.57,2.29.15,2.29,2v.43l-2,1.16v-.56c0-1-.39-1.12-1.07-.72a2.05,2.05,0,0,0-1.06,2c0,2.79,4.17.52,4.17,4.4a5.79,5.79,0,0,1-2.31,4.66v1l-1.75,1v-1c-1.53.57-2.3-.16-2.3-2v-.93l2-1.17v1.07c0,1,.43,1.07,1.11.68a2.08,2.08,0,0,0,1.1-2c0-2.79-4.16-.52-4.16-4.39A5.73,5.73,0,0,1,47,110.23Z"/><path class="cls-20" d="M46.92,110.17v-1l1.75-1v1c1.51-.57,2.28.15,2.28,2v.43l-2,1.16v-.56c0-1-.39-1.11-1.07-.72a2,2,0,0,0-1.06,2c0,2.79,4.16.52,4.16,4.4a5.78,5.78,0,0,1-2.3,4.66v1l-1.75,1v-1c-1.53.57-2.3-.16-2.3-2v-.93l2-1.17v1.07c0,1,.43,1.07,1.11.68a2.1,2.1,0,0,0,1.1-2c0-2.79-4.17-.52-4.17-4.39A5.75,5.75,0,0,1,46.92,110.17Z"/><path class="cls-20" d="M46.82,110.12v-1l1.74-1v1c1.52-.57,2.29.15,2.29,2v.43l-2,1.16v-.56c0-1-.39-1.11-1.07-.72a2,2,0,0,0-1.07,2c0,2.79,4.17.52,4.17,4.4a5.79,5.79,0,0,1-2.31,4.67v1l-1.74,1v-1c-1.53.58-2.31-.16-2.31-2v-.93l2-1.16v1.06c0,1,.43,1.07,1.1.68a2.08,2.08,0,0,0,1.11-2c0-2.8-4.17-.53-4.17-4.4A5.73,5.73,0,0,1,46.82,110.12Z"/><path class="cls-20" d="M46.72,110.06v-1l1.74-1v1c1.52-.56,2.29.15,2.29,2v.43l-2,1.16v-.56c0-1-.38-1.11-1.06-.72a2,2,0,0,0-1.07,2c0,2.79,4.17.52,4.17,4.4a5.79,5.79,0,0,1-2.31,4.67v1l-1.74,1v-1c-1.53.58-2.31-.16-2.31-2v-.93l2-1.16v1.06c0,1,.42,1.07,1.1.68a2.07,2.07,0,0,0,1.11-2c0-2.79-4.17-.52-4.17-4.4A5.73,5.73,0,0,1,46.72,110.06Z"/><path class="cls-20" d="M46.62,110v-1l1.74-1v1c1.51-.56,2.29.15,2.29,2v.43l-2,1.17V112c0-1-.38-1.11-1.06-.72a2,2,0,0,0-1.07,1.95c0,2.8,4.17.52,4.17,4.4a5.82,5.82,0,0,1-2.31,4.67v1l-1.74,1v-1c-1.53.57-2.31-.17-2.31-2v-.93l2-1.16v1.06c0,1,.42,1.08,1.1.68A2.07,2.07,0,0,0,48.54,119c0-2.79-4.17-.52-4.17-4.4A5.7,5.7,0,0,1,46.62,110Z"/><path class="cls-20" d="M46.52,109.94v-1l1.74-1v1c1.51-.56,2.29.15,2.29,2v.42l-2,1.17V112c0-1-.39-1.11-1.06-.72a2.06,2.06,0,0,0-1.07,2c0,2.79,4.17.52,4.17,4.39a5.8,5.8,0,0,1-2.31,4.67v1l-1.74,1v-1c-1.54.57-2.31-.16-2.31-2v-.93l2-1.16v1.07c0,1,.43,1.07,1.11.68a2.1,2.1,0,0,0,1.11-2c0-2.79-4.17-.52-4.17-4.4A5.7,5.7,0,0,1,46.52,109.94Z"/><path class="cls-20" d="M46.41,109.88v-1l1.75-1v1c1.51-.56,2.29.16,2.29,2v.42l-2,1.17v-.56c0-1-.39-1.12-1.07-.73a2.07,2.07,0,0,0-1.06,2c0,2.79,4.17.52,4.17,4.39a5.79,5.79,0,0,1-2.31,4.67v1l-1.75,1v-1c-1.53.57-2.3-.16-2.3-2v-.93l2-1.16v1.07c0,1,.43,1.07,1.11.68a2.08,2.08,0,0,0,1.1-2c0-2.79-4.16-.52-4.16-4.4A5.72,5.72,0,0,1,46.41,109.88Z"/><path class="cls-20" d="M46.31,109.82v-1l1.75-1v1c1.51-.56,2.28.16,2.28,2v.43l-2,1.16v-.56c0-1-.39-1.12-1.07-.73a2.06,2.06,0,0,0-1.06,2c0,2.79,4.16.52,4.16,4.4a5.78,5.78,0,0,1-2.3,4.66v1l-1.75,1v-1c-1.53.57-2.3-.16-2.3-2v-.93L46,119v1.07c0,1,.43,1.07,1.11.68a2.1,2.1,0,0,0,1.1-2c0-2.79-4.17-.52-4.17-4.4A5.73,5.73,0,0,1,46.31,109.82Z"/><path class="cls-20" d="M46.21,109.76v-1l1.74-1v1c1.52-.57,2.29.15,2.29,2v.43l-2,1.16v-.56c0-1-.39-1.12-1.07-.72a2,2,0,0,0-1.07,2c0,2.79,4.17.52,4.17,4.4A5.76,5.76,0,0,1,48,122.07v1l-1.74,1v-1c-1.53.57-2.31-.16-2.31-2v-.93l2-1.17v1.07c0,1,.43,1.07,1.11.68a2.1,2.1,0,0,0,1.1-2c0-2.79-4.17-.52-4.17-4.39A5.74,5.74,0,0,1,46.21,109.76Z"/><path class="cls-20" d="M46.11,109.7v-1l1.74-1v1c1.52-.57,2.29.15,2.29,2v.43l-2,1.16v-.56c0-1-.39-1.11-1.07-.72A2,2,0,0,0,46,113c0,2.79,4.17.52,4.17,4.4A5.76,5.76,0,0,1,47.85,122v1l-1.74,1v-1c-1.53.57-2.31-.16-2.31-2v-.93l2-1.17V120c0,1,.43,1.07,1.1.68a2.08,2.08,0,0,0,1.11-2c0-2.8-4.17-.53-4.17-4.4A5.75,5.75,0,0,1,46.11,109.7Z"/><path class="cls-20" d="M46,109.65v-1l1.74-1v1c1.51-.56,2.29.15,2.29,2v.43l-2,1.16v-.56c0-1-.38-1.11-1.06-.72a2,2,0,0,0-1.07,2c0,2.79,4.17.52,4.17,4.4A5.82,5.82,0,0,1,47.75,122v1L46,124v-1c-1.53.58-2.31-.16-2.31-2V120l2-1.16v1.06c0,1,.42,1.07,1.1.68a2.07,2.07,0,0,0,1.11-2c0-2.8-4.17-.52-4.17-4.4A5.73,5.73,0,0,1,46,109.65Z"/><path class="cls-20" d="M45.91,109.59v-1l1.74-1v1c1.51-.56,2.29.15,2.29,2V111l-2,1.16v-.56c0-1-.39-1.11-1.06-.72a2,2,0,0,0-1.07,2c0,2.79,4.17.52,4.17,4.4a5.82,5.82,0,0,1-2.31,4.67v1l-1.74,1v-1c-1.54.58-2.31-.16-2.31-2V120l2-1.16v1.06c0,1,.42,1.07,1.1.68a2.07,2.07,0,0,0,1.11-2c0-2.79-4.17-.52-4.17-4.4A5.7,5.7,0,0,1,45.91,109.59Z"/><path class="cls-20" d="M45.8,109.53v-1l1.75-1v1c1.51-.56,2.29.15,2.29,2v.43l-2,1.17v-.57c0-1-.39-1.11-1.06-.72a2.05,2.05,0,0,0-1.07,2c0,2.8,4.17.52,4.17,4.4a5.82,5.82,0,0,1-2.31,4.67v1l-1.75,1v-1c-1.53.57-2.3-.17-2.3-2v-.93l2-1.16v1.06c0,1,.43,1.08,1.11.68a2.06,2.06,0,0,0,1.1-1.95c0-2.79-4.16-.52-4.16-4.4A5.72,5.72,0,0,1,45.8,109.53Z"/><path class="cls-20" d="M45.7,109.47v-1l1.75-1v1c1.51-.56,2.29.15,2.29,2v.42l-2,1.17v-.57c0-1-.39-1.11-1.07-.72a2.05,2.05,0,0,0-1.06,2c0,2.79,4.16.52,4.16,4.39a5.8,5.8,0,0,1-2.3,4.67v1l-1.75,1v-1c-1.53.57-2.3-.16-2.3-2v-.93l2-1.16v1.07c0,1,.43,1.07,1.11.68a2.09,2.09,0,0,0,1.1-2c0-2.79-4.17-.52-4.17-4.4A5.73,5.73,0,0,1,45.7,109.47Z"/><path class="cls-20" d="M45.6,109.41v-1l1.75-1v1c1.51-.56,2.28.16,2.28,2v.42l-2,1.17v-.56c0-1-.39-1.12-1.07-.73a2.07,2.07,0,0,0-1.07,2c0,2.79,4.17.52,4.17,4.39a5.78,5.78,0,0,1-2.3,4.67v1l-1.75,1v-1c-1.53.57-2.31-.16-2.31-2v-.92l2-1.17v1.07c0,1,.43,1.07,1.11.68a2.1,2.1,0,0,0,1.1-2c0-2.79-4.17-.52-4.17-4.4A5.73,5.73,0,0,1,45.6,109.41Z"/><path class="cls-20" d="M45.5,109.35v-1l1.74-1v1c1.52-.57,2.29.15,2.29,2v.43l-2,1.16v-.56c0-1-.39-1.12-1.07-.73a2.07,2.07,0,0,0-1.07,2c0,2.79,4.17.52,4.17,4.4a5.76,5.76,0,0,1-2.31,4.66v1l-1.74,1v-1c-1.53.57-2.31-.16-2.31-2v-.93l2-1.17v1.07c0,1,.43,1.07,1.1.68a2.09,2.09,0,0,0,1.11-2c0-2.79-4.17-.52-4.17-4.4A5.73,5.73,0,0,1,45.5,109.35Z"/><path class="cls-20" d="M45.4,109.29v-1l1.74-1v1c1.51-.57,2.29.15,2.29,2v.43l-2,1.16v-.56c0-1-.38-1.12-1.06-.72a2,2,0,0,0-1.07,2c0,2.79,4.17.52,4.17,4.4a5.79,5.79,0,0,1-2.31,4.66v1l-1.74,1v-1c-1.53.57-2.31-.16-2.31-2v-.93l2-1.17v1.07c0,1,.42,1.07,1.1.68a2.09,2.09,0,0,0,1.11-2c0-2.79-4.17-.52-4.17-4.39A5.74,5.74,0,0,1,45.4,109.29Z"/><path class="cls-20" d="M45.3,109.24v-1l1.74-1v1c1.51-.57,2.29.15,2.29,2v.43l-2,1.16v-.56c0-1-.38-1.11-1.06-.72a2,2,0,0,0-1.07,2c0,2.79,4.17.52,4.17,4.4A5.79,5.79,0,0,1,47,121.54v1l-1.74,1v-1c-1.53.58-2.31-.16-2.31-2v-.93l2-1.16v1.06c0,1,.42,1.07,1.1.68a2.08,2.08,0,0,0,1.11-2c0-2.8-4.17-.53-4.17-4.4A5.69,5.69,0,0,1,45.3,109.24Z"/><path class="cls-20" d="M45.19,109.18v-1l1.75-1v1c1.51-.56,2.29.15,2.29,2v.43l-2,1.16v-.56c0-1-.39-1.11-1.06-.72a2,2,0,0,0-1.07,2c0,2.79,4.17.52,4.17,4.4a5.82,5.82,0,0,1-2.31,4.67v1l-1.75,1v-1c-1.53.58-2.3-.16-2.3-2v-.93l2-1.16v1.06c0,1,.43,1.07,1.11.68a2.06,2.06,0,0,0,1.1-2c0-2.8-4.16-.52-4.16-4.4A5.72,5.72,0,0,1,45.19,109.18Z"/><path class="cls-20" d="M45.09,109.12v-1l1.75-1v1c1.51-.56,2.29.15,2.29,2v.43l-2,1.16v-.56c0-1-.39-1.11-1.07-.72a2,2,0,0,0-1.06,2c0,2.79,4.16.52,4.16,4.4a5.81,5.81,0,0,1-2.3,4.67v1l-1.75,1v-1c-1.53.58-2.3-.16-2.3-2v-.93l2-1.16v1.06c0,1,.43,1.07,1.11.68a2.06,2.06,0,0,0,1.1-2c0-2.79-4.17-.52-4.17-4.4A5.73,5.73,0,0,1,45.09,109.12Z"/><path class="cls-20" d="M45,109.06v-1l1.75-1v1c1.51-.56,2.28.15,2.28,2v.42l-2,1.17v-.57c0-1-.39-1.11-1.07-.72a2,2,0,0,0-1.06,2c0,2.8,4.16.52,4.16,4.4a5.81,5.81,0,0,1-2.3,4.67v1l-1.75,1v-1c-1.53.57-2.3-.17-2.3-2v-.93l2-1.16v1.06c0,1,.43,1.08,1.11.68a2.08,2.08,0,0,0,1.1-2c0-2.79-4.17-.52-4.17-4.4A5.73,5.73,0,0,1,45,109.06Z"/><path class="cls-20" d="M44.89,109v-1l1.74-1v1c1.52-.56,2.29.15,2.29,2v.42l-2,1.17V111c0-1-.39-1.11-1.07-.72a2.06,2.06,0,0,0-1.07,2c0,2.79,4.17.52,4.17,4.39a5.78,5.78,0,0,1-2.31,4.67v1l-1.74,1v-1c-1.53.57-2.31-.16-2.31-2v-.93l2-1.16v1.07c0,1,.43,1.07,1.1.68a2.1,2.1,0,0,0,1.11-2c0-2.79-4.17-.52-4.17-4.4A5.73,5.73,0,0,1,44.89,109Z"/><polygon class="cls-21" points="48.04 109.81 44.89 107.99 46.63 106.98 49.78 108.8 48.04 109.81"/><path class="cls-21" d="M50.06,113.4l-1.58-.9s.68-.61,1.14-.59S50.07,112.7,50.06,113.4Z"/><polygon class="cls-21" points="47.75 120.04 44.6 118.22 42.58 119.38 45.73 121.2 47.75 120.04"/><path class="cls-21" d="M48,125.13l-3.15-1.82v-.07s1.58.93,1.74,1a1.86,1.86,0,0,0,1.41-.1Z"/><path class="cls-22" d="M48,110.82v-1l1.74-1v1c1.52-.56,2.29.15,2.29,2v.42l-2,1.17v-.56c0-1-.39-1.12-1.07-.73a2.06,2.06,0,0,0-1.07,2c0,2.79,4.17.52,4.17,4.39a5.78,5.78,0,0,1-2.31,4.67v1l-1.74,1v-1c-1.53.57-2.31-.16-2.31-2v-.93l2-1.16v1.07c0,1,.43,1.07,1.1.68a2.1,2.1,0,0,0,1.11-2c0-2.79-4.17-.52-4.17-4.4A5.73,5.73,0,0,1,48,110.82Z"/><path class="cls-20" d="M57.49,105.36v-1l1.74-1v1c1.52-.57,2.29.15,2.29,2v.43l-2,1.16v-.56c0-1-.38-1.12-1.06-.72a2,2,0,0,0-1.07,2c0,2.79,4.17.52,4.17,4.4a5.76,5.76,0,0,1-2.31,4.66v1l-1.74,1v-1c-1.53.57-2.31-.16-2.31-2v-.93l2-1.17v1.07c0,1,.42,1.07,1.1.68a2.09,2.09,0,0,0,1.11-2c0-2.79-4.17-.52-4.17-4.39A5.74,5.74,0,0,1,57.49,105.36Z"/><path class="cls-20" d="M57.39,105.31v-1l1.74-1v1c1.51-.56,2.29.15,2.29,2v.43l-2,1.16v-.56c0-1-.38-1.11-1.06-.72a2,2,0,0,0-1.07,2c0,2.79,4.17.52,4.17,4.4a5.82,5.82,0,0,1-2.31,4.67v1l-1.74,1v-1c-1.53.58-2.31-.16-2.31-2v-.93l2-1.16v1.06c0,1,.42,1.07,1.1.68a2.07,2.07,0,0,0,1.11-2c0-2.8-4.17-.53-4.17-4.4A5.7,5.7,0,0,1,57.39,105.31Z"/><path class="cls-20" d="M57.29,105.25v-1l1.74-1v1c1.51-.56,2.29.15,2.29,2v.43l-2,1.16v-.56c0-1-.39-1.11-1.06-.72a2,2,0,0,0-1.07,1.95c0,2.79,4.17.52,4.17,4.4A5.82,5.82,0,0,1,59,117.56v1l-1.74,1v-1c-1.54.58-2.31-.16-2.31-2v-.93l2-1.16v1.06c0,1,.43,1.07,1.11.68a2.06,2.06,0,0,0,1.1-1.95c0-2.79-4.16-.52-4.16-4.4A5.7,5.7,0,0,1,57.29,105.25Z"/><path class="cls-20" d="M57.18,105.19v-1l1.75-1v1c1.51-.56,2.29.15,2.29,2v.43l-2,1.17v-.57c0-1-.39-1.11-1.07-.72a2.05,2.05,0,0,0-1.06,2c0,2.8,4.17.52,4.17,4.4a5.82,5.82,0,0,1-2.31,4.67v1l-1.75,1v-1c-1.53.57-2.3-.17-2.3-2v-.93l2-1.16v1.06c0,1,.43,1.08,1.11.68a2.06,2.06,0,0,0,1.1-2c0-2.79-4.16-.52-4.16-4.4A5.72,5.72,0,0,1,57.18,105.19Z"/><path class="cls-20" d="M57.08,105.13v-1l1.75-1v1c1.51-.56,2.28.15,2.28,2v.42l-2,1.17v-.57c0-1-.39-1.11-1.07-.72a2.05,2.05,0,0,0-1.06,2c0,2.79,4.16.52,4.16,4.39a5.8,5.8,0,0,1-2.3,4.67v1l-1.75,1v-1c-1.53.57-2.3-.17-2.3-2v-.93l2-1.16v1.07c0,1,.43,1.07,1.11.68a2.09,2.09,0,0,0,1.1-2c0-2.79-4.17-.52-4.17-4.4A5.73,5.73,0,0,1,57.08,105.13Z"/><path class="cls-20" d="M57,105.07v-1l1.74-1v1c1.52-.56,2.29.15,2.29,2v.42l-2,1.17v-.56c0-1-.39-1.12-1.07-.73a2.06,2.06,0,0,0-1.07,2c0,2.79,4.17.52,4.17,4.39a5.76,5.76,0,0,1-2.31,4.67v1l-1.74,1v-1c-1.53.57-2.31-.16-2.31-2v-.93l2-1.16v1.07c0,1,.43,1.07,1.11.68a2.1,2.1,0,0,0,1.1-2c0-2.79-4.17-.52-4.17-4.4A5.73,5.73,0,0,1,57,105.07Z"/><path class="cls-20" d="M56.88,105v-1l1.74-1v1c1.52-.56,2.29.16,2.29,2v.42l-2,1.17V107c0-1-.39-1.12-1.07-.73a2.07,2.07,0,0,0-1.07,2c0,2.79,4.17.52,4.17,4.39a5.76,5.76,0,0,1-2.31,4.67v1l-1.74,1v-1c-1.53.57-2.31-.16-2.31-2v-.93l2-1.17v1.07c0,1,.42,1.07,1.1.68a2.09,2.09,0,0,0,1.11-2c0-2.79-4.17-.52-4.17-4.4A5.73,5.73,0,0,1,56.88,105Z"/><path class="cls-20" d="M56.78,105v-1l1.74-1v1c1.51-.57,2.29.15,2.29,2v.43l-2,1.16V107c0-1-.38-1.12-1.06-.72a2,2,0,0,0-1.07,2c0,2.79,4.17.52,4.17,4.4a5.79,5.79,0,0,1-2.31,4.66v1l-1.74,1v-1c-1.53.57-2.31-.16-2.31-2v-.93l2-1.17v1.07c0,1,.42,1.07,1.1.68a2.09,2.09,0,0,0,1.11-2c0-2.79-4.17-.52-4.17-4.39A5.74,5.74,0,0,1,56.78,105Z"/><path class="cls-20" d="M56.68,104.89v-1l1.74-1v1c1.51-.57,2.29.15,2.29,2v.43l-2,1.16v-.56c0-1-.39-1.12-1.06-.72a2,2,0,0,0-1.07,2c0,2.79,4.17.52,4.17,4.4a5.79,5.79,0,0,1-2.31,4.66v1l-1.74,1v-1c-1.54.57-2.31-.16-2.31-2v-.93l2-1.17v1.07c0,1,.42,1.07,1.1.68a2.09,2.09,0,0,0,1.11-2c0-2.79-4.17-.52-4.17-4.39A5.72,5.72,0,0,1,56.68,104.89Z"/><path class="cls-20" d="M56.57,104.84v-1l1.75-1v1c1.51-.56,2.29.15,2.29,2v.43l-2,1.16v-.56c0-1-.39-1.11-1.07-.72a2.05,2.05,0,0,0-1.06,2c0,2.79,4.17.52,4.17,4.4a5.82,5.82,0,0,1-2.31,4.67v1l-1.75,1v-1c-1.53.58-2.3-.16-2.3-2v-.93l2-1.16v1.06c0,1,.43,1.07,1.11.68a2.06,2.06,0,0,0,1.1-2c0-2.8-4.16-.53-4.16-4.4A5.72,5.72,0,0,1,56.57,104.84Z"/><path class="cls-20" d="M56.47,104.78v-1l1.75-1v1c1.51-.56,2.28.15,2.28,2v.43l-2,1.16v-.56c0-1-.39-1.11-1.07-.72a2,2,0,0,0-1.06,2c0,2.79,4.16.52,4.16,4.4a5.81,5.81,0,0,1-2.3,4.67v1l-1.75,1v-1c-1.53.58-2.3-.16-2.3-2v-.93l2-1.16v1.06c0,1,.43,1.07,1.11.68a2.06,2.06,0,0,0,1.1-1.95c0-2.79-4.17-.52-4.17-4.4A5.73,5.73,0,0,1,56.47,104.78Z"/><path class="cls-20" d="M56.37,104.72v-1l1.75-1v1c1.51-.56,2.28.15,2.28,2v.43l-2,1.17v-.57c0-1-.39-1.11-1.07-.72A2,2,0,0,0,56.25,108c0,2.8,4.17.52,4.17,4.4a5.81,5.81,0,0,1-2.3,4.67v1l-1.75,1v-1c-1.53.57-2.31-.17-2.31-2v-.93l2-1.16V115c0,1,.43,1.08,1.11.68a2.08,2.08,0,0,0,1.1-2c0-2.79-4.17-.52-4.17-4.4A5.73,5.73,0,0,1,56.37,104.72Z"/><path class="cls-20" d="M56.27,104.66v-1l1.74-1v1c1.52-.56,2.29.15,2.29,2v.42l-2,1.17v-.57c0-1-.39-1.11-1.07-.72a2.06,2.06,0,0,0-1.07,2c0,2.79,4.17.52,4.17,4.39A5.78,5.78,0,0,1,58,117v1l-1.74,1v-1c-1.53.57-2.31-.16-2.31-2V115l2-1.16V115c0,1,.43,1.07,1.1.68a2.1,2.1,0,0,0,1.11-2c0-2.79-4.17-.52-4.17-4.4A5.73,5.73,0,0,1,56.27,104.66Z"/><path class="cls-20" d="M56.17,104.6v-1l1.74-1v1c1.51-.56,2.29.16,2.29,2V106l-2,1.17v-.56c0-1-.38-1.12-1.06-.73a2.06,2.06,0,0,0-1.07,2c0,2.79,4.17.52,4.17,4.39a5.79,5.79,0,0,1-2.31,4.67v1l-1.74,1v-1c-1.53.57-2.31-.16-2.31-2V115l2-1.16v1.07c0,1,.42,1.07,1.1.68a2.09,2.09,0,0,0,1.11-2c0-2.79-4.17-.52-4.17-4.4A5.73,5.73,0,0,1,56.17,104.6Z"/><path class="cls-20" d="M56.07,104.54v-1l1.74-1v1c1.51-.56,2.29.16,2.29,2V106l-2,1.16v-.56c0-1-.38-1.12-1.06-.73a2.07,2.07,0,0,0-1.07,2c0,2.79,4.17.52,4.17,4.39a5.79,5.79,0,0,1-2.31,4.67v1l-1.74,1v-1c-1.54.57-2.31-.16-2.31-2v-.93l2-1.17v1.07c0,1,.42,1.07,1.1.68a2.09,2.09,0,0,0,1.11-2c0-2.79-4.17-.52-4.17-4.4A5.7,5.7,0,0,1,56.07,104.54Z"/><path class="cls-20" d="M56,104.48v-1l1.75-1v1c1.51-.57,2.29.15,2.29,2v.43l-2,1.16v-.56c0-1-.39-1.12-1.06-.72a2,2,0,0,0-1.07,2c0,2.79,4.17.52,4.17,4.4a5.79,5.79,0,0,1-2.31,4.66v1l-1.75,1v-1c-1.53.57-2.3-.16-2.3-2v-.93l2-1.17v1.07c0,1,.43,1.07,1.11.68a2.08,2.08,0,0,0,1.1-2c0-2.79-4.16-.52-4.16-4.39A5.73,5.73,0,0,1,56,104.48Z"/><path class="cls-20" d="M55.86,104.42v-1l1.75-1v1c1.51-.57,2.29.15,2.29,2v.43l-2,1.16v-.56c0-1-.39-1.11-1.07-.72a2,2,0,0,0-1.06,2c0,2.79,4.16.52,4.16,4.4a5.78,5.78,0,0,1-2.3,4.66v1l-1.75,1v-1c-1.53.57-2.3-.16-2.3-2v-.93l2-1.17v1.07c0,1,.43,1.07,1.11.68a2.07,2.07,0,0,0,1.1-2c0-2.8-4.17-.53-4.17-4.4A5.75,5.75,0,0,1,55.86,104.42Z"/><path class="cls-20" d="M55.76,104.37v-1l1.75-1v1c1.51-.56,2.28.15,2.28,2v.43l-2,1.16v-.56c0-1-.39-1.11-1.07-.72a2,2,0,0,0-1.07,2c0,2.79,4.17.52,4.17,4.4a5.81,5.81,0,0,1-2.3,4.67v1l-1.75,1v-1c-1.53.58-2.3-.16-2.3-2v-.93l2-1.16v1.06c0,1,.43,1.07,1.11.68a2.08,2.08,0,0,0,1.1-2c0-2.8-4.17-.52-4.17-4.4A5.73,5.73,0,0,1,55.76,104.37Z"/><path class="cls-20" d="M55.66,104.31v-1l1.74-1v1c1.52-.56,2.29.15,2.29,2v.43l-2,1.16v-.56c0-1-.39-1.11-1.07-.72a2,2,0,0,0-1.07,2c0,2.79,4.17.52,4.17,4.4a5.79,5.79,0,0,1-2.31,4.67v1l-1.74,1v-1c-1.53.58-2.31-.16-2.31-2v-.93l2-1.16v1.06c0,1,.43,1.08,1.1.68a2.07,2.07,0,0,0,1.11-2c0-2.79-4.17-.52-4.17-4.4A5.73,5.73,0,0,1,55.66,104.31Z"/><path class="cls-20" d="M55.56,104.25v-1l1.74-1v1c1.51-.56,2.29.15,2.29,2v.43l-2,1.17v-.57c0-1-.38-1.11-1.06-.72a2,2,0,0,0-1.07,1.95c0,2.8,4.17.52,4.17,4.4a5.82,5.82,0,0,1-2.31,4.67v1l-1.74,1v-1c-1.53.57-2.31-.17-2.31-2v-.93l2-1.16v1.06c0,1,.42,1.08,1.1.68a2.07,2.07,0,0,0,1.11-1.95c0-2.79-4.17-.52-4.17-4.4A5.73,5.73,0,0,1,55.56,104.25Z"/><path class="cls-20" d="M55.46,104.19v-1l1.74-1v1c1.51-.56,2.29.15,2.29,2v.42l-2,1.17v-.57c0-1-.38-1.11-1.06-.72a2.06,2.06,0,0,0-1.07,2c0,2.79,4.17.52,4.17,4.39a5.8,5.8,0,0,1-2.31,4.67v1l-1.74,1v-1c-1.54.57-2.31-.16-2.31-2v-.93l2-1.16v1.07c0,1,.42,1.07,1.1.68a2.1,2.1,0,0,0,1.11-2c0-2.79-4.17-.52-4.17-4.4A5.7,5.7,0,0,1,55.46,104.19Z"/><path class="cls-20" d="M55.35,104.13v-1l1.75-1v1c1.51-.56,2.29.16,2.29,2v.42l-2,1.17v-.56c0-1-.39-1.12-1.06-.73a2.06,2.06,0,0,0-1.07,2c0,2.79,4.17.52,4.17,4.39a5.79,5.79,0,0,1-2.31,4.67v1l-1.75,1v-1c-1.53.57-2.3-.16-2.3-2v-.93l2-1.17v1.07c0,1,.43,1.07,1.11.68a2.08,2.08,0,0,0,1.1-2c0-2.79-4.16-.52-4.16-4.4A5.72,5.72,0,0,1,55.35,104.13Z"/><path class="cls-20" d="M55.25,104.07v-1l1.75-1v1c1.51-.56,2.29.16,2.29,2v.43l-2,1.16v-.56c0-1-.39-1.12-1.07-.73a2.06,2.06,0,0,0-1.06,2c0,2.79,4.16.52,4.16,4.4a5.78,5.78,0,0,1-2.3,4.66v1l-1.75,1v-1c-1.53.57-2.3-.16-2.3-2v-.93l2-1.17v1.07c0,1,.43,1.07,1.11.68a2.08,2.08,0,0,0,1.1-2c0-2.79-4.17-.52-4.17-4.39A5.74,5.74,0,0,1,55.25,104.07Z"/><path class="cls-20" d="M55.15,104v-1l1.75-1v1c1.51-.57,2.28.15,2.28,2v.43l-2,1.16V106c0-1-.39-1.12-1.07-.72a2,2,0,0,0-1.06,2c0,2.79,4.16.52,4.16,4.4a5.78,5.78,0,0,1-2.3,4.66v1l-1.75,1v-1c-1.53.57-2.3-.16-2.3-2v-.93l2-1.17v1.07c0,1,.43,1.07,1.11.68a2.1,2.1,0,0,0,1.1-2c0-2.79-4.17-.52-4.17-4.39A5.74,5.74,0,0,1,55.15,104Z"/><path class="cls-20" d="M55.05,104v-1l1.74-1v1c1.52-.57,2.29.15,2.29,2v.43l-2,1.16V106c0-1-.39-1.11-1.07-.72a2,2,0,0,0-1.07,2c0,2.79,4.17.52,4.17,4.4a5.76,5.76,0,0,1-2.31,4.66v1l-1.74,1v-1c-1.53.57-2.31-.16-2.31-2v-.93l2-1.17v1.07c0,1,.43,1.07,1.1.68A2.08,2.08,0,0,0,57,113c0-2.8-4.17-.53-4.17-4.4A5.76,5.76,0,0,1,55.05,104Z"/><path class="cls-20" d="M55,103.9v-1l1.74-1v1c1.51-.56,2.29.15,2.29,2v.43l-2,1.16v-.56c0-1-.38-1.11-1.06-.72a2,2,0,0,0-1.07,2c0,2.79,4.17.52,4.17,4.4a5.82,5.82,0,0,1-2.31,4.67v1l-1.74,1v-1c-1.53.58-2.31-.16-2.31-2v-.93l2-1.16v1.06c0,1,.42,1.07,1.1.68a2.07,2.07,0,0,0,1.11-2c0-2.8-4.17-.52-4.17-4.4A5.73,5.73,0,0,1,55,103.9Z"/><path class="cls-20" d="M54.85,103.84v-1l1.74-1v1c1.51-.56,2.29.15,2.29,2v.43l-2,1.16v-.56c0-1-.38-1.11-1.06-.72a2,2,0,0,0-1.07,2c0,2.79,4.17.52,4.17,4.4a5.82,5.82,0,0,1-2.31,4.67v1l-1.74,1v-1c-1.53.58-2.31-.16-2.31-2v-.93l2-1.16v1.06c0,1,.42,1.08,1.1.68a2.07,2.07,0,0,0,1.11-2c0-2.79-4.17-.52-4.17-4.4A5.7,5.7,0,0,1,54.85,103.84Z"/><path class="cls-20" d="M54.74,103.78v-1l1.75-1v1c1.51-.56,2.29.15,2.29,2v.43l-2,1.17v-.57c0-1-.39-1.11-1.06-.72a2.05,2.05,0,0,0-1.07,2c0,2.8,4.17.52,4.17,4.4a5.82,5.82,0,0,1-2.31,4.67v1l-1.75,1v-1c-1.53.57-2.3-.17-2.3-2v-.93l2-1.16v1.06c0,1,.43,1.08,1.11.68a2.06,2.06,0,0,0,1.1-1.95c0-2.79-4.16-.52-4.16-4.4A5.72,5.72,0,0,1,54.74,103.78Z"/><path class="cls-20" d="M54.64,103.72v-1l1.75-1v1c1.51-.56,2.29.15,2.29,2v.42l-2,1.17v-.57c0-1-.39-1.11-1.07-.72a2.05,2.05,0,0,0-1.06,2c0,2.79,4.17.52,4.17,4.39A5.8,5.8,0,0,1,56.39,116v1l-1.75,1v-1c-1.53.57-2.3-.16-2.3-2v-.93l2-1.16V114c0,1,.43,1.07,1.11.68a2.09,2.09,0,0,0,1.1-2c0-2.79-4.16-.52-4.16-4.4A5.72,5.72,0,0,1,54.64,103.72Z"/><path class="cls-20" d="M54.54,103.66v-1l1.75-1v1c1.51-.56,2.28.16,2.28,2v.42l-2,1.17v-.56c0-1-.39-1.12-1.07-.73a2.06,2.06,0,0,0-1.06,2c0,2.79,4.16.52,4.16,4.39a5.78,5.78,0,0,1-2.3,4.67v1l-1.75,1v-1c-1.53.57-2.3-.16-2.3-2v-.93l2-1.17V114c0,1,.43,1.07,1.11.68a2.1,2.1,0,0,0,1.1-2c0-2.79-4.17-.52-4.17-4.4A5.73,5.73,0,0,1,54.54,103.66Z"/><path class="cls-20" d="M54.44,103.6v-1l1.74-1v1c1.52-.57,2.29.15,2.29,2V105l-2,1.16v-.56c0-1-.39-1.12-1.07-.73a2.07,2.07,0,0,0-1.07,2c0,2.79,4.17.52,4.17,4.4a5.76,5.76,0,0,1-2.31,4.66v1l-1.74,1v-1c-1.53.57-2.31-.16-2.31-2V114l2-1.17v1.07c0,1,.43,1.07,1.1.68a2.09,2.09,0,0,0,1.11-2c0-2.79-4.17-.52-4.17-4.39A5.74,5.74,0,0,1,54.44,103.6Z"/><path class="cls-20" d="M54.34,103.54v-1l1.74-1v1c1.52-.57,2.29.15,2.29,2V105l-2,1.16v-.56c0-1-.38-1.12-1.06-.72a2,2,0,0,0-1.07,2c0,2.79,4.17.52,4.17,4.4a5.76,5.76,0,0,1-2.31,4.66v1l-1.74,1v-1c-1.53.57-2.31-.16-2.31-2v-.93l2-1.17v1.07c0,1,.42,1.07,1.1.68a2.09,2.09,0,0,0,1.11-2c0-2.79-4.17-.52-4.17-4.39A5.74,5.74,0,0,1,54.34,103.54Z"/><polygon class="cls-21" points="57.49 104.36 54.34 102.54 56.08 101.53 59.23 103.35 57.49 104.36"/><path class="cls-21" d="M59.5,107.94l-1.57-.9s.68-.61,1.14-.58S59.52,107.25,59.5,107.94Z"/><polygon class="cls-21" points="57.2 114.58 54.05 112.76 52.03 113.93 55.18 115.75 57.2 114.58"/><path class="cls-21" d="M57.49,119.67l-3.15-1.82v-.06s1.58.92,1.73,1a1.79,1.79,0,0,0,1.42-.1Z"/><path class="cls-22" d="M57.49,105.36v-1l1.74-1v1c1.52-.57,2.29.15,2.29,2v.43l-2,1.16v-.56c0-1-.38-1.12-1.06-.72a2,2,0,0,0-1.07,2c0,2.79,4.17.52,4.17,4.4a5.76,5.76,0,0,1-2.31,4.66v1l-1.74,1v-1c-1.53.57-2.31-.16-2.31-2v-.93l2-1.17v1.07c0,1,.42,1.07,1.1.68a2.09,2.09,0,0,0,1.11-2c0-2.79-4.17-.52-4.17-4.39A5.74,5.74,0,0,1,57.49,105.36Z"/><path class="cls-11" d="M37.23,165.68a2.87,2.87,0,0,1-1.49-.4c-1.19-.68-1.87-2.18-1.87-4.11V48.83c0-3.42,2-7.27,4.63-8.77L86.63,12.27a3.5,3.5,0,0,1,3.58-.22c1.18.68,1.86,2.19,1.86,4.12V128.5c0,3.42-2,7.27-4.62,8.77L39.31,165.06A4.21,4.21,0,0,1,37.23,165.68ZM88.71,13.29a2.57,2.57,0,0,0-1.26.4L39.31,41.48C37.25,42.67,35.5,46,35.5,48.83V161.17a3,3,0,0,0,1,2.7,2,2,0,0,0,2-.22l48.13-27.79c2.07-1.2,3.81-4.56,3.81-7.36V16.17a3.06,3.06,0,0,0-1-2.71A1.4,1.4,0,0,0,88.71,13.29Z"/><path class="cls-23" d="M35.5,161.65V49.31c0-3.1,1.89-6.71,4.22-8.05l48.14-27.8c2.32-1.34,4.21.09,4.21,3.19V129c0,3.1-1.89,6.71-4.21,8.06L39.72,164.84C37.39,166.18,35.5,164.76,35.5,161.65Z"/><g class="cls-10"><polygon class="cls-11" points="89.36 70.42 89.36 31.96 35.4 85.92 35.4 124.37 89.36 70.42"/><path class="cls-11" d="M35.4,74.62l54-53.95V15.84c0-1.75-1.23-2.46-2.75-1.59l-4.33,2.5L35.4,63.63Z"/><polygon class="cls-11" points="89.36 101.14 89.36 79.05 35.4 133.01 35.4 155.09 89.36 101.14"/><polygon class="cls-11" points="89.36 121.02 89.36 115.97 45.74 159.59 57.7 152.69 89.36 121.02"/></g><path class="cls-24" d="M90.71,158.59a3.46,3.46,0,0,0,1.57,2.72c.88.51,1.58.1,1.58-.91a3.45,3.45,0,0,0-1.58-2.72C91.41,157.17,90.71,157.58,90.71,158.59Z"/><path class="cls-24" d="M90.81,158.52a3.48,3.48,0,0,0,1.58,2.73c.87.51,1.57.1,1.57-.91a3.46,3.46,0,0,0-1.57-2.72C91.52,157.11,90.81,157.52,90.81,158.52Z"/><path class="cls-24" d="M90.91,158.46a3.48,3.48,0,0,0,1.58,2.73c.87.5,1.58.1,1.58-.91a3.48,3.48,0,0,0-1.58-2.72C91.62,157.05,90.91,157.46,90.91,158.46Z"/><path class="cls-24" d="M91,158.4a3.47,3.47,0,0,0,1.57,2.73c.87.5,1.58.1,1.58-.91a3.48,3.48,0,0,0-1.58-2.72C91.72,157,91,157.4,91,158.4Z"/><path class="cls-24" d="M91.12,158.34a3.47,3.47,0,0,0,1.57,2.73c.88.5,1.58.1,1.58-.91a3.45,3.45,0,0,0-1.58-2.72C91.82,156.93,91.12,157.34,91.12,158.34Z"/><path class="cls-24" d="M91.22,158.28A3.48,3.48,0,0,0,92.8,161c.87.5,1.57.1,1.57-.91a3.5,3.5,0,0,0-1.57-2.73C91.93,156.87,91.22,157.28,91.22,158.28Z"/><path class="cls-24" d="M91.32,158.22A3.48,3.48,0,0,0,92.9,161c.87.5,1.58.1,1.58-.91a3.51,3.51,0,0,0-1.58-2.73C92,156.81,91.32,157.22,91.32,158.22Z"/><path class="cls-25" d="M90.71,158.59a3.46,3.46,0,0,0,1.57,2.72c.88.51,1.58.1,1.58-.91a3.45,3.45,0,0,0-1.58-2.72C91.41,157.17,90.71,157.58,90.71,158.59Z"/><path class="cls-26" d="M91.77,159.2a1.13,1.13,0,0,0,.51.89c.29.16.52,0,.52-.3a1.12,1.12,0,0,0-.52-.89C92,158.73,91.77,158.87,91.77,159.2Z"/><path class="cls-24" d="M78.06,151.29A3.47,3.47,0,0,0,79.63,154c.87.5,1.58.09,1.58-.91a3.49,3.49,0,0,0-1.58-2.73C78.76,149.88,78.06,150.29,78.06,151.29Z"/><path class="cls-24" d="M78.16,151.23A3.45,3.45,0,0,0,79.74,154c.87.5,1.57.09,1.57-.91a3.48,3.48,0,0,0-1.57-2.73C78.86,149.82,78.16,150.23,78.16,151.23Z"/><path class="cls-24" d="M78.26,151.17a3.48,3.48,0,0,0,1.58,2.73c.87.5,1.57.09,1.57-.91a3.48,3.48,0,0,0-1.57-2.73C79,149.76,78.26,150.17,78.26,151.17Z"/><path class="cls-24" d="M78.36,151.11a3.48,3.48,0,0,0,1.58,2.73c.87.5,1.58.09,1.58-.91a3.49,3.49,0,0,0-1.58-2.73C79.07,149.7,78.36,150.11,78.36,151.11Z"/><path class="cls-24" d="M78.47,151.05A3.47,3.47,0,0,0,80,153.78c.87.5,1.58.09,1.58-.91A3.49,3.49,0,0,0,80,150.14C79.17,149.64,78.47,150.05,78.47,151.05Z"/><path class="cls-24" d="M78.57,151a3.45,3.45,0,0,0,1.58,2.73c.87.5,1.57.09,1.57-.91a3.47,3.47,0,0,0-1.57-2.73C79.27,149.58,78.57,150,78.57,151Z"/><path class="cls-24" d="M78.67,150.93a3.49,3.49,0,0,0,1.58,2.73c.87.5,1.57.09,1.57-.91A3.47,3.47,0,0,0,80.25,150C79.38,149.52,78.67,149.93,78.67,150.93Z"/><path class="cls-25" d="M78.06,151.29A3.47,3.47,0,0,0,79.63,154c.87.5,1.58.09,1.58-.91a3.49,3.49,0,0,0-1.58-2.73C78.76,149.88,78.06,150.29,78.06,151.29Z"/><path class="cls-26" d="M79.12,151.9a1.17,1.17,0,0,0,.51.9c.29.16.52,0,.52-.3a1.12,1.12,0,0,0-.52-.89C79.35,151.44,79.12,151.57,79.12,151.9Z"/><path class="cls-24" d="M76.9,166.58a3.48,3.48,0,0,0,1.58,2.73c.87.5,1.58.1,1.58-.91a3.51,3.51,0,0,0-1.58-2.73C77.61,165.17,76.9,165.58,76.9,166.58Z"/><path class="cls-24" d="M77,166.52a3.47,3.47,0,0,0,1.57,2.73c.87.5,1.58.1,1.58-.91a3.51,3.51,0,0,0-1.58-2.73C77.71,165.11,77,165.52,77,166.52Z"/><path class="cls-24" d="M77.11,166.46a3.45,3.45,0,0,0,1.58,2.73c.87.5,1.57.1,1.57-.91a3.48,3.48,0,0,0-1.57-2.73C77.81,165.05,77.11,165.46,77.11,166.46Z"/><path class="cls-24" d="M77.21,166.4a3.48,3.48,0,0,0,1.58,2.73c.87.5,1.57.1,1.57-.91a3.48,3.48,0,0,0-1.57-2.73C77.92,165,77.21,165.4,77.21,166.4Z"/><path class="cls-24" d="M77.31,166.34a3.48,3.48,0,0,0,1.58,2.73c.87.5,1.58.09,1.58-.91a3.49,3.49,0,0,0-1.58-2.73C78,164.93,77.31,165.34,77.31,166.34Z"/><path class="cls-24" d="M77.42,166.28A3.47,3.47,0,0,0,79,169c.87.5,1.58.09,1.58-.91A3.49,3.49,0,0,0,79,165.37C78.12,164.87,77.42,165.28,77.42,166.28Z"/><path class="cls-24" d="M77.52,166.22A3.45,3.45,0,0,0,79.1,169c.87.5,1.57.09,1.57-.91a3.48,3.48,0,0,0-1.57-2.73C78.22,164.81,77.52,165.22,77.52,166.22Z"/><path class="cls-25" d="M76.9,166.58a3.48,3.48,0,0,0,1.58,2.73c.87.5,1.58.1,1.58-.91a3.51,3.51,0,0,0-1.58-2.73C77.61,165.17,76.9,165.58,76.9,166.58Z"/><path class="cls-26" d="M78,167.19a1.15,1.15,0,0,0,.52.9c.29.16.52,0,.52-.3a1.12,1.12,0,0,0-.52-.89C78.19,166.73,78,166.86,78,167.19Z"/><path class="cls-24" d="M64.25,159.29A3.51,3.51,0,0,0,65.83,162c.87.5,1.58.09,1.58-.91a3.48,3.48,0,0,0-1.58-2.73C65,157.88,64.25,158.28,64.25,159.29Z"/><path class="cls-24" d="M64.35,159.23A3.51,3.51,0,0,0,65.93,162c.87.5,1.58.09,1.58-.91a3.48,3.48,0,0,0-1.58-2.73C65.06,157.82,64.35,158.22,64.35,159.23Z"/><path class="cls-24" d="M64.46,159.17A3.5,3.5,0,0,0,66,161.9c.87.5,1.58.09,1.58-.91A3.48,3.48,0,0,0,66,158.26C65.16,157.76,64.46,158.16,64.46,159.17Z"/><path class="cls-24" d="M64.56,159.11a3.48,3.48,0,0,0,1.58,2.73c.87.5,1.57.09,1.57-.91a3.47,3.47,0,0,0-1.57-2.73C65.26,157.7,64.56,158.1,64.56,159.11Z"/><path class="cls-24" d="M64.66,159.05a3.51,3.51,0,0,0,1.58,2.73c.87.5,1.58.09,1.58-.91a3.48,3.48,0,0,0-1.58-2.73C65.37,157.64,64.66,158,64.66,159.05Z"/><path class="cls-24" d="M64.76,159a3.51,3.51,0,0,0,1.58,2.73c.87.5,1.58.09,1.58-.91a3.48,3.48,0,0,0-1.58-2.73C65.47,157.58,64.76,158,64.76,159Z"/><path class="cls-24" d="M64.87,158.93a3.5,3.5,0,0,0,1.57,2.73c.87.5,1.58.09,1.58-.91A3.48,3.48,0,0,0,66.44,158C65.57,157.52,64.87,157.92,64.87,158.93Z"/><path class="cls-25" d="M64.25,159.29A3.51,3.51,0,0,0,65.83,162c.87.5,1.58.09,1.58-.91a3.48,3.48,0,0,0-1.58-2.73C65,157.88,64.25,158.28,64.25,159.29Z"/><path class="cls-26" d="M65.31,159.9a1.12,1.12,0,0,0,.52.89c.28.17.52,0,.52-.29a1.18,1.18,0,0,0-.52-.9C65.54,159.44,65.31,159.57,65.31,159.9Z"/><path class="cls-27" d="M81,165.57a4.22,4.22,0,0,1-2-.69l-12.6-7.28a.4.4,0,0,1-.2-.35.43.43,0,0,1,.2-.36l12.61-7.27a.43.43,0,0,1,.41,0s9.84,5.74,12.55,7.3c1.18.69,1.85.67,2.06.45a.75.75,0,0,0-.06-.85c-.65-1-1.28-2-1.29-2a.42.42,0,0,1,.14-.56.4.4,0,0,1,.56.14s.62,1,1.27,2a1.53,1.53,0,0,1,0,1.86c-.34.36-1.18.81-3.07-.29-2.48-1.43-10.92-6.35-12.35-7.18l-11.78,6.8,12,6.92c1.19.69,1.86.67,2.06.44a.71.71,0,0,0-.05-.84c-.66-1-1.32-2-1.32-2a.39.39,0,0,1,.11-.56.41.41,0,0,1,.57.11s.66,1,1.32,1.93a1.56,1.56,0,0,1,0,1.87A1.36,1.36,0,0,1,81,165.57Z"/><path class="cls-27" d="M81.87,165.25a.39.39,0,0,1-.35-.2.41.41,0,0,1,.15-.56l12.6-7.28a.42.42,0,0,1,.56.15.41.41,0,0,1-.15.56l-12.6,7.28A.41.41,0,0,1,81.87,165.25Z"/><path class="cls-28" d="M82.29,155.62a.18.18,0,0,1-.1,0l-20-11.55a.19.19,0,0,1-.09-.17.17.17,0,0,1,.09-.16l12.63-7.27a.21.21,0,0,1,.19,0l19.78,11.42a.19.19,0,0,1,.07.26l0,0a.19.19,0,0,1-.08.26L82.39,155.6A.18.18,0,0,1,82.29,155.62ZM62.68,143.88l19.61,11.33,12.21-7.05L74.91,136.85Z"/><path class="cls-28" d="M81.24,158.66a.19.19,0,0,1-.1,0L62.79,148a.19.19,0,0,1,0-.34l12.53-7.33a.18.18,0,0,1,.2,0L93.92,151a.19.19,0,0,1,.1.17.18.18,0,0,1-.1.16l-12.58,7.29A.17.17,0,0,1,81.24,158.66Zm-18-10.8,18,10.38,12.2-7.06-18-10.43Z"/><path class="cls-28" d="M63.44,152a.19.19,0,0,1-.19-.17l-.84-5.91L61.57,140a.2.2,0,0,1,.39-.05l.83,5.91.84,5.92a.2.2,0,0,1-.16.22Z"/><path class="cls-28" d="M66,142.2a.19.19,0,0,1,.2.18l.41,5.67.41,5.66h0a.2.2,0,0,1-.13.19h-.08a.18.18,0,0,1-.17-.18l-.41-5.67-.41-5.66h0A.18.18,0,0,1,66,142.2Z"/><path class="cls-28" d="M70.26,144.65a.19.19,0,0,1,.18.19l0,5.43,0,5.42v0a.18.18,0,0,1-.14.17h-.08a.19.19,0,0,1-.16-.19l0-5.43,0-5.42h0A.2.2,0,0,1,70.26,144.65Z"/><path class="cls-28" d="M74.51,147.1a.19.19,0,0,1,.17.21l-.45,5.19-.44,5.18h0a.18.18,0,0,1-.15.16h-.08a.19.19,0,0,1-.14-.21l.45-5.18.45-5.18v0A.18.18,0,0,1,74.51,147.1Z"/><path class="cls-28" d="M78.77,149.55a.2.2,0,0,1,.16.23l-.88,4.94-.88,4.94v0a.19.19,0,0,1-.17.14h-.08a.19.19,0,0,1-.12-.22l.87-4.94.88-4.94v0A.2.2,0,0,1,78.77,149.55Z"/><path class="cls-28" d="M80.37,161.79h-.05a.19.19,0,0,1-.14-.24l1.31-4.7,1.3-4.7A.21.21,0,0,1,83,152a.19.19,0,0,1,.14.24L81.86,157l-1.3,4.7A.21.21,0,0,1,80.37,161.79Z"/><path class="cls-28" d="M76.09,144.8a.19.19,0,0,1-.19-.17l-.84-5.91-.84-5.91a.19.19,0,0,1,.17-.22.2.2,0,0,1,.22.16l.84,5.91.83,5.92a.2.2,0,0,1-.16.22Z"/><path class="cls-28" d="M78.65,135a.19.19,0,0,1,.2.18l.41,5.67.41,5.66h0a.2.2,0,0,1-.13.19h-.08a.18.18,0,0,1-.17-.18l-.41-5.67-.41-5.66h0A.18.18,0,0,1,78.65,135Z"/><path class="cls-28" d="M82.91,137.49a.19.19,0,0,1,.18.2l0,5.42,0,5.42v0a.18.18,0,0,1-.14.17h-.08a.2.2,0,0,1-.16-.2l0-5.42,0-5.42v0A.2.2,0,0,1,82.91,137.49Z"/><path class="cls-28" d="M87.17,139.94a.18.18,0,0,1,.16.21l-.44,5.19-.45,5.18h0a.19.19,0,0,1-.16.16H86.2a.19.19,0,0,1-.14-.21l.45-5.18.45-5.18v0A.19.19,0,0,1,87.17,139.94Z"/><path class="cls-28" d="M91.43,142.39a.2.2,0,0,1,.15.23l-.88,4.94-.88,4.94v0a.19.19,0,0,1-.17.14h-.07a.19.19,0,0,1-.13-.21l.87-4.95.88-4.94v0A.2.2,0,0,1,91.43,142.39Z"/><path class="cls-28" d="M93,154.63h0a.19.19,0,0,1-.14-.23l1.31-4.71,1.31-4.7a.18.18,0,0,1,.23-.13.19.19,0,0,1,.14.24l-1.31,4.7-1.3,4.7A.19.19,0,0,1,93,154.63Z"/><path class="cls-28" d="M76.09,144.8a.19.19,0,0,1-.19-.17l-1.68-11.82a.19.19,0,0,1,.17-.22.2.2,0,0,1,.22.16l1.67,11.83a.2.2,0,0,1-.16.22Z"/><path class="cls-28" d="M72.93,146.59a.19.19,0,0,1-.19-.17L71.06,134.6a.19.19,0,1,1,.38-.06l1.68,11.83a.2.2,0,0,1-.16.22Z"/><path class="cls-28" d="M69.77,148.38a.2.2,0,0,1-.2-.17L67.9,136.39a.19.19,0,0,1,.38-.06L70,148.16a.21.21,0,0,1-.17.22Z"/><path class="cls-28" d="M66.6,150.17a.19.19,0,0,1-.19-.17l-1.68-11.82a.19.19,0,0,1,.17-.22.2.2,0,0,1,.22.16L66.8,150a.21.21,0,0,1-.17.22Z"/><path class="cls-28" d="M63.44,152a.19.19,0,0,1-.19-.17L61.57,140a.19.19,0,0,1,.17-.22.2.2,0,0,1,.22.16l1.67,11.83a.2.2,0,0,1-.16.22Z"/><path class="cls-28" d="M80.37,161.79h-.05a.19.19,0,0,1-.14-.24l2.61-9.4A.21.21,0,0,1,83,152a.19.19,0,0,1,.14.24l-2.61,9.41A.21.21,0,0,1,80.37,161.79Z"/><path class="cls-28" d="M83.53,160h0a.2.2,0,0,1-.13-.24l2.61-9.4a.19.19,0,0,1,.24-.14.2.2,0,0,1,.13.24l-2.61,9.41A.2.2,0,0,1,83.53,160Z"/><path class="cls-28" d="M86.7,158.16h-.06a.2.2,0,0,1-.13-.24l2.61-9.41a.19.19,0,1,1,.37.11L86.88,158A.18.18,0,0,1,86.7,158.16Z"/><path class="cls-28" d="M89.86,156.35h0a.19.19,0,0,1-.14-.24l2.61-9.41a.2.2,0,0,1,.38.11L90,156.21A.18.18,0,0,1,89.86,156.35Z"/><path class="cls-28" d="M93,154.54h0a.21.21,0,0,1-.14-.24l2.62-9.4a.19.19,0,1,1,.37.1l-2.61,9.41A.2.2,0,0,1,93,154.54Z"/><path class="cls-28" d="M80.37,162a.42.42,0,0,1-.21-.06l-16.93-9.83a.39.39,0,0,1-.19-.3L61.36,140a.4.4,0,0,1,.17-.39.41.41,0,0,1,.44,0l20.76,12,.64-2.32-7.59-4.38a.4.4,0,0,1-.2-.3L74,132.72a.4.4,0,0,1,.18-.39.39.39,0,0,1,.43,0l20.72,12,1.46-5.3a.41.41,0,0,1,.79.22L96,145v0l-2.6,9.4a.41.41,0,0,1-.23.27.38.38,0,0,1-.36,0l-6.63-3.82-2.8,1.62-2.57,9.25a.41.41,0,0,1-.39.3Zm-16.55-10.5L80.12,161l2.38-8.59L62.29,140.71ZM87,150.37l5.76,3.32,2.18-7.93Zm-2.84-.7-.46,1.66,1.66-1Zm.22-.81,1.8,1,8.61-5L74.89,133.44l1.48,10.82,7.23,4.18.61-2.21a.42.42,0,0,1,.51-.29.41.41,0,0,1,.28.51Z"/><path class="cls-28" d="M63.44,152.17a.39.39,0,0,1-.35-.2.4.4,0,0,1,.15-.56l12.54-7.25a.42.42,0,0,1,.56.15.4.4,0,0,1-.15.56l-12.54,7.25A.41.41,0,0,1,63.44,152.17Z"/><path class="cls-28" d="M80.37,162a.43.43,0,0,1-.36-.21.42.42,0,0,1,.15-.56L92.75,154a.4.4,0,0,1,.56.14.4.4,0,0,1-.15.56L80.57,162A.36.36,0,0,1,80.37,162Z"/><path class="cls-28" d="M61.76,140.35a.4.4,0,0,1-.35-.21.41.41,0,0,1,.15-.56l12.61-7.27a.41.41,0,0,1,.41.71L62,140.29A.42.42,0,0,1,61.76,140.35Z"/><path class="cls-28" d="M63.44,152a.21.21,0,0,1-.17-.1.19.19,0,0,1,.07-.26l12.55-7.25a.2.2,0,0,1,.27.07.19.19,0,0,1-.07.26l-12.55,7.25A.19.19,0,0,1,63.44,152Z"/><path class="cls-28" d="M67.67,154.42a.22.22,0,0,1-.17-.1.2.2,0,0,1,.08-.27l12.56-7.25a.18.18,0,0,1,.26.07.19.19,0,0,1-.07.26l-12.56,7.26A.17.17,0,0,1,67.67,154.42Z"/><path class="cls-28" d="M71.9,156.87a.18.18,0,0,1-.16-.09.2.2,0,0,1,.07-.27l12.57-7.26a.18.18,0,0,1,.26.07.18.18,0,0,1-.07.26L72,156.85A.16.16,0,0,1,71.9,156.87Z"/><path class="cls-28" d="M76.14,159.33a.2.2,0,0,1-.17-.09A.2.2,0,0,1,76,159l12.58-7.28a.21.21,0,0,1,.27.07.2.2,0,0,1-.08.27l-12.58,7.28Z"/><path class="cls-28" d="M80.37,161.79a.19.19,0,0,1-.17-.1.19.19,0,0,1,.07-.26l12.59-7.29a.21.21,0,0,1,.27.07.21.21,0,0,1-.07.27l-12.59,7.28A.19.19,0,0,1,80.37,161.79Z"/><path class="cls-29" d="M83.08,148a.79.79,0,0,1-.68-.39.78.78,0,0,1,.29-1.06L97.61,138a.78.78,0,0,1,.78,1.35l-14.93,8.58A.76.76,0,0,1,83.08,148Z"/><path class="cls-30" d="M63.69,139.29v1l-.8.51s-.62-.87-.26-1.2A1.73,1.73,0,0,1,63.69,139.29Z"/><path class="cls-29" d="M63.91,141.65v.59a1.38,1.38,0,0,1-.52.22H63.3a15.88,15.88,0,0,1-1.72-1s-.08-.51-.18-1.22.13-.67.58-.93l.84-.48c.74-.06.87.43.87.43l-.65.38c-.37.23-.37.34-.15.45l1,.56c-.59,0-.5.65-.5.65Z"/><path class="cls-30" d="M63.91,141.65v.59a1.38,1.38,0,0,1-.52.22v-1.12Z"/><path class="cls-29" d="M73,133.9l.13,1.26.72-.44a1.48,1.48,0,0,1,1.39-.1,6.93,6.93,0,0,1,.84.49L76,134.06s-.15-.69.27-.75l-1.56-.95c-.36-.22-.52-.07-1,.23s-1.27.72-1.27.72S72.88,133.24,73,133.9Z"/><polygon class="cls-30" points="73.14 135.16 72.48 135.07 72.42 134.22 73.01 133.9 73.14 135.16"/><polygon class="cls-30" points="76.09 135.11 76.68 134.87 76.68 134.45 76.01 134.06 76.09 135.11"/><path class="cls-24" d="M106.07,170.8c0,1,.37,1-.76,1.41a24.55,24.55,0,0,1-4.18-1.82c-.87-.51.84-.76,1.7-.66A13.07,13.07,0,0,1,106.07,170.8Z"/><path class="cls-31" d="M98,128.24c-.08,2.34-.11,4.89.53,5a5.43,5.43,0,0,0,2.28-.11c.65-.17.67.35.68,1.82,0,0,1.51.08,2-.87s1-6,0-7.43C102.83,125.59,98.19,123.84,98,128.24Z"/><path class="cls-32" d="M106.07,145.75c1.19,1.94,1.26,4.73.9,8.77s-.53,5.46-.53,5.46a8.59,8.59,0,0,1,.72,4.54,29.47,29.47,0,0,1-1.09,6.28c-.16.26-.43.29-.84,0l-2.91-22S102.92,144.35,106.07,145.75Z"/><path class="cls-33" d="M97.28,139.53c-1.28-.78-3.21-.66-3.52,0s1.2.86,1.27,1.06-1.2-.17-1.11.4,1,.49,1.86.82a5.12,5.12,0,0,0,2.48-.15l.55-.89A8,8,0,0,0,97.28,139.53Z"/><path class="cls-24" d="M98.91,174.93c0,1,.37,1-.76,1.41A24.36,24.36,0,0,1,94,174.53c-.87-.51.84-.76,1.69-.67A13.49,13.49,0,0,1,98.91,174.93Z"/><path class="cls-34" d="M103.82,147.25a7.12,7.12,0,0,1,.08,3.45c-.85,3.49-3.71,11-3.66,11.77s.87,3.4.53,6.11a30.48,30.48,0,0,1-1.86,6.35c-.2.2-.47.24-.87,0,0,0-.28-9.18-.37-12.23a95,95,0,0,1,.14-15.11S101.07,145.8,103.82,147.25Z"/><path class="cls-13" d="M102.4,133.71a11.94,11.94,0,0,0-4.14,2.62c-2.13,1.79-1.79,2.91-.61,4a8.47,8.47,0,0,1,.39,4.53c-.18,2-.23,2.71-.23,2.71s5.23,1.31,8.26-1.84c-.5-1.5-1.69-2.3-1.73-3.29,0-1.26,1.08-3.63,1.39-5.51s.71-3.71-.89-3.15A2.64,2.64,0,0,1,102.4,133.71Z"/><path class="cls-35" d="M98.51,125.93c-.65.73.08,2.59.85,3.12a3.75,3.75,0,0,0,1.22.6s-.15,1.35.18,1.22.22-1.37.43-1.73,1-.67,1.18.16,0,1.6-1,1.82c0,0-.36,2.79-.36,4.12s.29,2.76,1.15,2.61.86-.69.86-.69a2.26,2.26,0,0,0,2,.51,2.15,2.15,0,0,0,1.36-1.77s.68.13.78-.78-1.17.55-1.8-1.27-.31-3.25-.31-5.5-1.09-3.7-2.91-3.7A4.44,4.44,0,0,0,98.51,125.93Z"/><path class="cls-31" d="M100.43,137.37c-1.24-.49-2.36,2.56-3.2,4.42l-1.55,3.46S92.58,144,92,143.61c-.84-.51-1-2.15-1.4-2s-.19,1.07-.19,1.07a2.71,2.71,0,0,0-2-.48c-1.11.19-2.23,1.29-1.39,1.59s3.46,1.61,5.55,2.53,3.7,2,4.28.91,2.67-5.49,3.54-7.23S101.3,137.71,100.43,137.37Z"/><polygon class="cls-36" points="102.59 206.22 102.59 158.95 140.59 180.9 140.59 228.16 102.59 206.22"/><polygon class="cls-14" points="102.59 158.95 161.06 125.2 199.06 147.14 140.59 180.9 102.59 158.95"/><polygon class="cls-37" points="199.06 147.14 199.06 194.4 140.59 228.16 140.59 180.9 199.06 147.14"/><polygon class="cls-38" points="140.62 137.02 178.6 158.96 161.06 169.08 123.03 147.15 140.62 137.02"/><polygon class="cls-39" points="178.6 158.96 178.6 172.46 175.68 170.77 175.68 174.15 172.75 172.46 172.75 175.83 169.83 174.15 169.83 177.52 166.91 175.83 166.91 179.21 163.98 177.52 163.98 180.9 161.06 179.21 161.06 169.08 178.6 158.96"/><polygon class="cls-40" points="155.21 209.59 152.29 211.28 152.29 218.03 149.37 219.72 149.37 212.97 146.44 214.66 150.83 205.37 155.21 209.59"/><polygon class="cls-40" points="166.37 203.26 163.44 204.95 163.44 211.7 160.52 213.39 160.52 206.64 157.6 208.33 161.98 199.04 166.37 203.26"/><polygon class="cls-41" points="100.4 202.45 104.08 196.39 105.51 194.12 99.21 192.4 95.4 198.35 100.4 202.45"/><polygon class="cls-11" points="99.38 193.15 104.42 194.66 100.3 201.66 95.94 198.65 99.38 193.15"/><polygon class="cls-42" points="100.67 193.27 100.4 193.73 103.04 194.51 103.31 194.02 100.67 193.27"/><path class="cls-42" d="M101.13,193.4s.13,0,0-.27-.58-.39-.44-.85l3.63,1s-.21.47-1.07.47c-.2,0-.31,0-.38.16Z"/><polygon class="cls-43" points="100.69 192.28 100.75 192.08 104.42 193.09 104.32 193.27 100.69 192.28"/><path class="cls-43" d="M102.87,193.9l-1.74-.5s.11,0,0-.25l2,.59A.39.39,0,0,0,102.87,193.9Z"/><polygon class="cls-43" points="100.66 192.4 104.24 193.39 104.13 193.49 100.66 192.53 100.66 192.4"/><path class="cls-44" d="M89.38,197.13s-.47,1.79-.62,2.44,2.54,4.09,2.54,4.09.67-3.09.34-4.25S89.38,197.13,89.38,197.13Z"/><path class="cls-45" d="M91.16,192.73a1.12,1.12,0,0,0-1.09.57c-.27.65-1.14,4.33-1.14,4.33s.84,1.55,2.23,1.07Z"/><path class="cls-46" d="M89.21,230.83c0,1-.28,1.14.85,1.55a41.45,41.45,0,0,0,5.2-2.39c.87-.51-.84-.75-1.69-.66A23.89,23.89,0,0,0,89.21,230.83Z"/><path class="cls-46" d="M97.48,234.54c0,1-.28,1.14.85,1.55a41.45,41.45,0,0,0,5.2-2.39c.87-.51-.84-.75-1.69-.66A23.89,23.89,0,0,0,97.48,234.54Z"/><path class="cls-35" d="M90.71,206.11c-.91,2.1-.9,3.22-1,8.78a38.83,38.83,0,0,1-.32,5.09s-.79,1.3-.65,4.43.52,6.64.52,6.64c.17.25,1.54-.36,2-.65l3.54-20.83S93.86,204.71,90.71,206.11Z"/><path class="cls-47" d="M93.13,206.43a8.2,8.2,0,0,0,0,4.27c.82,3.5,2.45,10.92,2.4,11.68a30.1,30.1,0,0,0,.09,5.8,30.44,30.44,0,0,0,1.86,6.36,3.32,3.32,0,0,0,1.94-.26s-.42-8.86-.32-11.9a126,126,0,0,0-.52-15.18S95.88,205,93.13,206.43Z"/><path class="cls-48" d="M93.74,193.31c1.41.39,4,1.26,4.4,4.53.27,2,.23,4.9.27,7,0,1.77.63,2.28-.06,2.73,0,0-4.81,2.07-7.84-1.08-.46-.36,0-1,.19-2,.36-2,.75-2.05-.12-7.05-.72-4.08-.13-5.12,1.47-4.56S93.74,193.31,93.74,193.31Z"/><path class="cls-44" d="M98.58,198a23.21,23.21,0,0,0,1.57,3.23c.24.07,2.91-3.64,2.91-3.64l1-1.15a2.22,2.22,0,0,1,.3,2.4c-.68,1.3-3.21,5.47-4.23,5.91s-4-4.86-4-4.86Z"/><path class="cls-44" d="M98.41,187.68c.08,2.34-.1,5-.75,5.16a4.71,4.71,0,0,1-2.06-.27c-.64-.17-.67.35-.67,1.82,0,.42-2.35.48-2.54-.83-.06-.38.11-.78.08-1.62-.1-2-.23-4.83.45-5.85S98.26,183.28,98.41,187.68Z"/><path class="cls-45" d="M99.62,199.36s-1.28-2.69-1.89-3.6c-1-1.54-4.81-1.25-3.58,1.29A37.66,37.66,0,0,0,96,200.49,3.46,3.46,0,0,0,99.62,199.36Z"/><path class="cls-32" d="M94.91,188.57c-.36-.53-.84-.69-1.14,0a1.14,1.14,0,0,0,.68,1.55,2.87,2.87,0,0,1-.16,1.47c-.29.65-.84.71-1.6.49s-.9-.3-1-1a24.8,24.8,0,0,0-.25-2.73c-.19-1.05-.61-2.41,0-2.92s6,1.19,5.14,1.26-1.5.23-1.43.75a10,10,0,0,1,.22,1.82C95.39,189.58,94.91,188.57,94.91,188.57Z"/><path class="cls-49" d="M92.38,193s.14.44,1,.66a2.3,2.3,0,0,0,1.52-.11l.47.9a3.21,3.21,0,0,1-2.16.24C92.07,194.24,91.73,193.48,92.38,193Z"/><path class="cls-29" d="M96.48,187.58a31.51,31.51,0,0,0,4.75-1.86c1.1-.71-1-1.67-2-2s-4,.82-4,.82Z"/><path class="cls-13" d="M91.41,188a7.3,7.3,0,0,0,4.52-.16c2.4-.88,2.38-1.46,2.38-1.46s-.42-4.25-4.89-2.83A3.08,3.08,0,0,0,91.41,188Z"/><path class="cls-50" d="M256.79,217.29v5.78a1,1,0,0,0,.67.9c.38.19-.32-6.47-.32-6.47Z"/><path class="cls-51" d="M257.14,217.5v5.6c0,.84.49,1.23,1.21.82l.56-.33a2.88,2.88,0,0,0,1.31-2.27v-5.59Z"/><polygon class="cls-52" points="260.23 215.73 259.86 215.51 256.79 217.29 257.14 217.5 260.23 215.73"/><path class="cls-50" d="M255.23,227.84a.21.21,0,0,1-.16-.08.2.2,0,0,1,.06-.27l2.85-1.77a1.09,1.09,0,0,0,.51-.92v-5.52a.2.2,0,0,1,.19-.19.19.19,0,0,1,.19.19v5.52a1.45,1.45,0,0,1-.69,1.24l-2.85,1.78A.16.16,0,0,1,255.23,227.84Z"/><polygon class="cls-53" points="220.11 250.91 244.73 236.69 244.74 201.14 220.11 215.36 220.11 250.91"/><polygon class="cls-54" points="244.74 201.14 204.71 178.04 180.08 192.25 220.11 215.36 244.74 201.14"/><path class="cls-55" d="M227.42,246.69a12.57,12.57,0,0,1,5.69,9.86c0,3.63-4.56,5.86-7.7,4.05s-3.68-7-3.68-10.62S224.28,244.88,227.42,246.69ZM192,226.25a12.6,12.6,0,0,1,5.69,9.86c0,3.63-4.57,5.86-7.71,4s-3.68-7-3.68-10.62S188.87,224.43,192,226.25Z"/><path class="cls-56" d="M238,254.79,237.5,249l-5.08-8.72-3.85-18.67-8.46-6.22-40-23.11V227.8l40,23.11,16.51,9.53a1.17,1.17,0,0,0,1.75-1.12Z"/><polygon class="cls-54" points="253.2 207.36 244.74 201.14 220.11 215.36 228.57 221.58 253.2 207.36"/><path class="cls-52" d="M262.9,244.37s-3.54,4.89-11.25,9.5a39.12,39.12,0,0,1-13.38,4.72L237.5,249l24.63-14.22Z"/><path class="cls-54" d="M262.13,234.75s-3.54,4.89-11.25,9.5A38.87,38.87,0,0,1,237.5,249l-5.08-8.72L257.05,226Z"/><path class="cls-57" d="M257.05,226a57,57,0,0,1-10.77,8,80.76,80.76,0,0,1-13.86,6.22l-3.85-18.66L244,212.7l7.07-4.08,2.16-1.25Z"/><path class="cls-50" d="M231.92,254.11l.5-.37s3.48,2.64,5.25,2.64c1.52,0,7-.7,14.35-4.87a32.66,32.66,0,0,0,10.72-9.23s.74,0,.74,1.19-7.91,10.51-15,12.45-11.51,2.32-13.69,1.7S231.92,254.11,231.92,254.11Z"/><path class="cls-51" d="M263.21,242.78s-3.54,4.89-11.25,9.5A39.12,39.12,0,0,1,238.58,257c-3,.27-6.66-2.89-6.66-2.89h0v4.23s3.66,3.15,6.66,2.88A39.12,39.12,0,0,0,252,256.5c7.71-4.61,11.25-9.5,11.25-9.5C263.81,246,263.56,242.15,263.21,242.78Z"/><path class="cls-54" d="M253.2,207.37,251,208.62,244,212.7l-15.4,8.88,3.85,18.66A80.76,80.76,0,0,0,246.28,234a57,57,0,0,0,10.77-8Zm-8.8,26.83A79.82,79.82,0,0,1,233.7,239a.63.63,0,0,1-.86-.48l-3.26-15.8a1.15,1.15,0,0,1,.5-1.13l10-5.76a.53.53,0,0,1,.83.36l4,16.93A1,1,0,0,1,244.4,234.2Zm2-1.09a.53.53,0,0,1-.82-.36l-4-17a1.1,1.1,0,0,1,.48-1.13l1.9-1.09,7.7-4.45.34-.2a.52.52,0,0,1,.82.36L256.08,225a1.48,1.48,0,0,1-.41,1.25A62,62,0,0,1,246.38,233.11Z"/><g class="cls-58"><path class="cls-59" d="M238.38,250a29.12,29.12,0,0,0,4.43-1.05s.48,3.63.51,4.76-4.39,2.37-4.52,1C238.61,252.69,238.38,250,238.38,250Z"/></g><g class="cls-58"><path class="cls-59" d="M261.54,237a25.46,25.46,0,0,1-2.69,2.68s.34,2.92.49,3.92.78.79,1.79-.29.92-1.11.76-2.86S261.54,237,261.54,237Z"/></g><polygon class="cls-57" points="227.8 222.08 230.88 238.47 220.11 232.25 220.11 216.52 227.8 222.08"/><polygon class="cls-60" points="254.74 225.45 243.97 219.23 243.97 213.57 251.67 209.12 254.74 225.45"/><path class="cls-61" d="M243.79,248.74l.54,5.24a1,1,0,0,0,.79-.25l-.55-5.2Z"/><path class="cls-61" d="M245.76,248.15l.54,5.21a1,1,0,0,0,.77-.32l-.55-5.15Z"/><path class="cls-61" d="M247.7,247.38l.54,5.18a.9.9,0,0,0,.76-.39l-.55-5.09Z"/><path class="cls-61" d="M249.6,246.47l.53,5.15a.81.81,0,0,0,.74-.46l-.54-5Z"/><path class="cls-61" d="M251.43,245.45l.53,5.12a.78.78,0,0,0,.73-.53l-.54-5Z"/><path class="cls-61" d="M253.17,244.35l.54,5.1a.76.76,0,0,0,.71-.61l-.53-4.93Z"/><path class="cls-61" d="M254.82,243.22l.54,5.07c.24.05.61-.22.69-.68l-.53-4.87Z"/><path class="cls-61" d="M256.34,242.09l.54,5c.28.07.64-.26.68-.74l-.53-4.82Z"/><path class="cls-61" d="M257.73,241l.53,5c.33.07.67-.31.67-.82l-.53-4.77Z"/><path class="cls-50" d="M225.9,232.93v5.77a1,1,0,0,0,.68.9c.38.19-.32-6.46-.32-6.46Z"/><path class="cls-51" d="M226.26,233.14v5.59c0,.84.49,1.24,1.21.82l.56-.32a2.89,2.89,0,0,0,1.31-2.28v-5.59Z"/><polygon class="cls-52" points="229.34 231.36 228.98 231.15 225.9 232.93 226.26 233.14 229.34 231.36"/><path class="cls-50" d="M228.5,240.81a.9.9,0,0,1-.89-.89v-5a.19.19,0,0,1,.19-.19.18.18,0,0,1,.19.19v5a.5.5,0,0,0,.26.44.47.47,0,0,0,.51,0l2-1.16a.17.17,0,0,1,.25.07.17.17,0,0,1-.06.25l-2,1.17A.89.89,0,0,1,228.5,240.81Z"/><path class="cls-62" d="M219.42,250.58a12.58,12.58,0,0,0,5.69,9.85c3.14,1.82,5.69.35,5.69-3.28a12.6,12.6,0,0,0-5.69-9.86C222,245.47,219.42,247,219.42,250.58Z"/><path class="cls-51" d="M221.77,252.92a8.1,8.1,0,0,0,2.48,4.3c3.08,2.68,5,1.58,4.2-2.42a8,8,0,0,0-2.49-4.3C222.89,247.82,221,248.92,221.77,252.92Z"/><path class="cls-50" d="M227,256.47a1.46,1.46,0,0,1-1.74,0,4.92,4.92,0,0,1-2.23-3.86c0-.91.4-1.46,1-1.57a1.7,1.7,0,0,0-.49,1.33,4.93,4.93,0,0,0,2.23,3.86A1.86,1.86,0,0,0,227,256.47Z"/><path class="cls-50" d="M224.38,253.53a1.27,1.27,0,0,0,.58,1c.32.19.59,0,.59-.33a1.28,1.28,0,0,0-.59-1C224.64,253,224.38,253.16,224.38,253.53Z"/><path class="cls-63" d="M222.68,253a6.09,6.09,0,0,0,2.28,4.46c2.3,1.83,3,.36,3,.36l-.85-1s-.91,1.08-2.5-.43A6.66,6.66,0,0,1,222.68,253Z"/><path class="cls-63" d="M224.79,251c-.69,0-.87,1-.87,1s.61-.87,1.63,0a5.26,5.26,0,0,1,1.63,3.92C227.92,255.3,227,251.21,224.79,251Z"/><path class="cls-62" d="M184,230.13A12.58,12.58,0,0,0,189.7,240c3.14,1.82,5.69.35,5.69-3.28a12.58,12.58,0,0,0-5.69-9.86C186.56,225,184,226.5,184,230.13Z"/><path class="cls-51" d="M186.36,232.48a8,8,0,0,0,2.49,4.3c3.07,2.68,5,1.58,4.19-2.42a8.1,8.1,0,0,0-2.48-4.3C187.48,227.38,185.58,228.48,186.36,232.48Z"/><path class="cls-50" d="M191.54,236a1.45,1.45,0,0,1-1.73,0,4.91,4.91,0,0,1-2.24-3.86c0-.91.4-1.46,1-1.57a1.67,1.67,0,0,0-.49,1.33,4.94,4.94,0,0,0,2.22,3.86A1.87,1.87,0,0,0,191.54,236Z"/><path class="cls-50" d="M189,233.09a1.27,1.27,0,0,0,.59,1c.32.19.58,0,.58-.33a1.3,1.3,0,0,0-.58-1C189.23,232.57,189,232.72,189,233.09Z"/><path class="cls-63" d="M187.27,232.51a6.12,6.12,0,0,0,2.29,4.46c2.29,1.83,2.95.36,2.95.36l-.85-1s-.9,1.08-2.49-.43A6.67,6.67,0,0,1,187.27,232.51Z"/><path class="cls-63" d="M189.39,230.57c-.69,0-.88,1-.88,1s.61-.87,1.63,0a5.27,5.27,0,0,1,1.64,3.91C192.51,234.86,191.62,230.76,189.39,230.57Z"/><path class="cls-29" d="M195.06,210.18v.76c0,.93-.52,1.14-1.58.53l-.5-.29v2.19l-1.06-.61v-5.84l1.56.9A2.71,2.71,0,0,1,195.06,210.18ZM193,208.37v2l.5.29c.34.2.52.17.52-.25v-.87a.88.88,0,0,0-.52-.85Z"/><path class="cls-29" d="M198.9,216.79l-1.07-.62-.18-1.16-1.3-.75-.18,1-1-.56,1.08-5.22,1.55.9Zm-2.42-3.25,1,.59-.51-3.24Z"/><path class="cls-29" d="M202.46,216.67v.77c0,.94-.54,1.16-1.58.56a2.78,2.78,0,0,1-1.58-2.38v-3c0-.94.54-1.16,1.58-.56a2.78,2.78,0,0,1,1.58,2.38V215l-1-.58v-.63a1,1,0,0,0-.55-.89c-.33-.19-.55-.16-.55.26v3.15a1,1,0,0,0,.55.88c.34.2.55.17.55-.25v-.83Z"/><path class="cls-29" d="M204.49,217.69l-.32.35v1.79l-1.06-.61v-5.84l1.06.61v2.54l1.38-1.74,1.06.61-1.47,1.75,1.47,4.09-1.09-.63Z"/><polygon class="cls-29" points="191.17 214.1 207.4 223.46 207.4 219.9 211.95 227.88 207.4 230.57 207.4 227.01 191.17 217.66 191.17 214.1"/><path class="cls-44" d="M286.73,233.69s-.42,3.38-.48,4-.68,1.24-1.81,1.88a31.38,31.38,0,0,0-4.6,3.19c-1,.89-2.79,0-1.8-1.11.44-.49,1.78-1.07,1.63-1.36,0,0-1.53-.11-.93-.69.42-.39,1.61.08,2.14-.11a28.5,28.5,0,0,0,3.06-2.13l.48-3.35Z"/><path class="cls-45" d="M286.71,228.82a2.49,2.49,0,0,0-2.29,2c-.25,1.19-.54,3.79-.54,3.79s1.76.78,2.91-.06C286.79,234.51,288.39,228.81,286.71,228.82Z"/><path class="cls-46" d="M296.17,266.85a5.14,5.14,0,0,1,.32,1.9c-.15.47-3.84,2.74-5.07,3.29s-1.75.21-.7-1.36a20.13,20.13,0,0,1,3.49-3.54Z"/><path class="cls-46" d="M287.65,262.59a5.32,5.32,0,0,1,.33,1.9c-.16.47-3.85,2.74-5.07,3.29s-1.76.22-.7-1.36a20.13,20.13,0,0,1,3.49-3.54Z"/><path class="cls-35" d="M285.61,240.68c-.24,3.5.1,8.57,0,9.76s-.34,12.76-.34,12.76,1.71.42,2.44-.34a24.5,24.5,0,0,0,.88-4.2c.31-2.36,1.09-4.06.19-5.71,0,0,.68-2.82,1.4-5.86s.05-5.88-1-6.41S285.61,240.68,285.61,240.68Z"/><path class="cls-47" d="M288.32,241.69s2.5,11.51,2.77,12.26,1,5.8,1.61,8.47,1,5.11,1,5.11a2.69,2.69,0,0,0,2.49-.6c0-.33-.36-5-.42-7.95s-1.26-4.12-1.26-4.12.19-5.72.17-8.18a12.4,12.4,0,0,0-1.81-6.59Z"/><path class="cls-48" d="M288.27,228.49a3.81,3.81,0,0,0-1.87.48c-1.54.86-1.36,5.07-1.36,5.07l.57,6.64s4.61,2.62,7.44-.59c-.08-.88-.61-3.07-.58-3.72a22.37,22.37,0,0,1,.8-4.73c.43-1.28,0-1.75-1.31-2.24A27.89,27.89,0,0,0,288.27,228.49Z"/><path class="cls-44" d="M285.78,221.56c0,1.87-.27,4.72.31,5.11s2.18,0,2.18,0v4.55s2.38-.26,2.38-1.82,0-3.63,0-3.63a2.11,2.11,0,0,0,.92-1.82c0-1.29.19-3.23-2.37-3.42a17.76,17.76,0,0,0-3.25-.09Z"/><polygon class="cls-36" points="276.61 245.11 276.58 239.19 281.36 241.91 281.39 247.84 276.61 245.11"/><polygon class="cls-14" points="276.58 239.19 283.89 234.92 288.66 237.65 281.36 241.91 276.58 239.19"/><polygon class="cls-37" points="288.66 237.65 288.69 243.57 281.39 247.84 281.36 241.91 288.66 237.65"/><polygon class="cls-38" points="281.33 236.41 286.11 239.14 283.91 240.42 279.14 237.7 281.33 236.41"/><polygon class="cls-39" points="286.11 239.14 286.11 240.83 285.75 240.62 285.75 241.04 285.38 240.84 285.38 241.26 285.02 241.05 285.02 241.47 284.65 241.26 284.65 241.69 284.29 241.48 284.29 241.9 283.92 241.69 283.91 240.42 286.11 239.14"/><polygon class="cls-40" points="283.21 245.5 282.84 245.71 282.85 246.56 282.48 246.77 282.48 245.93 282.11 246.14 282.65 244.97 283.21 245.5"/><polygon class="cls-40" points="284.6 244.7 284.24 244.91 284.24 245.76 283.87 245.97 283.87 245.13 283.51 245.34 284.05 244.17 284.6 244.7"/><path class="cls-49" d="M288.27,231.22s2.36-2.09,2.35-3.06v-.58a4.17,4.17,0,0,1,.6.81,4.39,4.39,0,0,1,.19,1,3,3,0,0,1-1.72,1.4l-.28,1Z"/><path class="cls-49" d="M288.27,231.22l-.94.24.37-.91a2.29,2.29,0,0,1-.06-1.62,3.29,3.29,0,0,1,.63-1Z"/><path class="cls-32" d="M288.83,221.35a3.85,3.85,0,0,0,.34,1.14,1.58,1.58,0,0,1,.22,1.31c-.15.51.63-.32.63-1s.58-.81,1.07-.2-.58,1.78-.89,1.51a1.82,1.82,0,0,0-.18,1.14,2.43,2.43,0,0,0,.62,1.14,4.62,4.62,0,0,1,.57-.62,4.23,4.23,0,0,0,.57-3C291.59,221.59,288.83,221.35,288.83,221.35Z"/><path class="cls-13" d="M291.78,222.85s-1.81-2.29-5.95-1.84c0,0-.11-1,1.5-1.94s4.14.41,4.38,1.6A6.92,6.92,0,0,1,291.78,222.85Z"/><path class="cls-29" d="M290.2,221.68s-1.32-1.83-2.7-2-3.84.27-3.67.51a15.09,15.09,0,0,0,1.89,1.21S286.56,220.66,290.2,221.68Z"/><path class="cls-44" d="M293.79,234.33s-.21,3.4-.23,4-.59,1.28-1.68,2a31.91,31.91,0,0,0-4.38,3.47c-.93.95-2.79.19-1.87-1,.41-.52,1.7-1.19,1.53-1.47,0,0-1.53,0-1-.62.39-.42,1.61,0,2.13-.25a30,30,0,0,0,2.91-2.32l.25-3.38Z"/><path class="cls-45" d="M293.42,229.65c-.56-.68-2.06.33-2.23,1.54s-.19,4.2-.19,4.2,1.8.67,2.89-.25C293.89,235.14,294.48,231,293.42,229.65Z"/><path class="cls-24" d="M259.87,279.63c0,1-.37,1,.76,1.41a24.58,24.58,0,0,0,4.19-1.82c.87-.51-.85-.76-1.7-.66A13,13,0,0,0,259.87,279.63Z"/><path class="cls-31" d="M268.1,236.92c.08,2.34.11,4.89-.53,5a5.43,5.43,0,0,1-2.28-.11c-.65-.17-.67.35-.68,1.82,0,0-1.51.08-2-.87s-1-6,0-7.43C263.31,234.27,268,232.52,268.1,236.92Z"/><path class="cls-32" d="M260.07,254.43c-1.19,1.94-1.26,4.73-.9,8.77s.53,5.46.53,5.46a8.59,8.59,0,0,0-.72,4.54,33.48,33.48,0,0,0,1,6.38c.17.26.43.3.85,0l1.77-10.45,1.19-11.69S263.22,253,260.07,254.43Z"/><path class="cls-33" d="M268.86,248.21a4,4,0,0,1,2.88-.5c.92.32.82,1.29.06,1.72a9.13,9.13,0,0,1-3.76,1.2,8.59,8.59,0,0,0-.71-1.2A8,8,0,0,1,268.86,248.21Z"/><path class="cls-24" d="M266.52,283.61c0,1-.37,1,.75,1.42a25.42,25.42,0,0,0,4.19-1.82c.87-.51-.85-.76-1.7-.67A13.36,13.36,0,0,0,266.52,283.61Z"/><path class="cls-34" d="M262.32,255.93a7.12,7.12,0,0,0-.08,3.45c.85,3.49,3.71,11,3.66,11.77s-.87,3.4-.53,6.11a56.52,56.52,0,0,0,1.37,6.44c.2.19.47.23.87,0,0,0,1-9.29,1.09-12.33a109.85,109.85,0,0,0-.37-15.1S265.06,254.48,262.32,255.93Z"/><path class="cls-13" d="M263.74,242.39a12.09,12.09,0,0,1,4.14,2.62c2.13,1.79,1.79,2.91.61,4a8.47,8.47,0,0,0-.39,4.53c.18,2,.23,2.71.23,2.71s-5.23,1.31-8.26-1.84c.5-1.5,1.69-2.3,1.73-3.29.05-1.26-1.08-3.63-1.39-5.51s-.71-3.71.89-3.15A2.64,2.64,0,0,0,263.74,242.39Z"/><path class="cls-35" d="M267.63,234.61c.65.73-.08,2.59-.85,3.12a3.49,3.49,0,0,1-1.22.6s.15,1.35-.18,1.22-.23-1.37-.43-1.73-1-.67-1.18.16,0,1.6,1,1.82c0,0,.36,2.79.36,4.13s-.29,2.75-1.15,2.6-.86-.69-.86-.69a2.26,2.26,0,0,1-2,.51,2.15,2.15,0,0,1-1.36-1.77s-.68.13-.78-.78,1.17.55,1.8-1.27.31-3.25.31-5.5,1.09-3.69,2.91-3.69S266.87,233.76,267.63,234.61Z"/><path class="cls-31" d="M265.71,246.05c1.24-.49,2.36,2.56,3.2,4.42l1.55,3.46s5.67-2.44,6.1-2.6a5.82,5.82,0,0,1,2.95-.59c.29.07.89.74,0,1.46-.37.29-.77.54-1.15.82a.43.43,0,0,0-.19.23c0,.22.24.34.47.35s.51.05.55.27a.33.33,0,0,1-.21.34,1,1,0,0,1-.42,0c-.5,0-1-.08-1.49-.15a4,4,0,0,0-1.29-.13,5.08,5.08,0,0,0-.87.44l-1.36.62c-2.1.92-3.7,2-4.28.91s-2.67-5.49-3.54-7.23S264.84,246.39,265.71,246.05Z"/><path class="cls-64" d="M119.49,54.78,72.62,81.84a3.42,3.42,0,0,0-1.56,2.71l.07,24.86c0,1,.7,1.39,1.57.89l46.79-27Z"/><path class="cls-36" d="M112.91,64.54c0-1-.71-1.4-1.58-.9L76.58,83.71A3.44,3.44,0,0,0,75,86.41l.07,24.86c0,1,.71,1.4,1.58.89L111.41,92.1A3.45,3.45,0,0,0,113,89.39Z"/><path class="cls-11" d="M98.93,74.7l.41-.24-.47,3-.39.22,0-.22a1.73,1.73,0,0,1-.56.55c-.43.25-.77.12-.77-.43a2.12,2.12,0,0,1,1-1.73c.27-.15.48-.16.59,0Zm-.87,2.89a1.3,1.3,0,0,0,.59-1.08c0-.31-.17-.41-.46-.24a1.32,1.32,0,0,0-.59,1.09c0,.31.17.4.46.23"/><path class="cls-11" d="M96.74,87.89c.65-.38,1-.09,1,.8a2.4,2.4,0,0,1-1.14,2.13A1.09,1.09,0,0,1,96,91l.14-.39a.69.69,0,0,0,.47-.14,1.66,1.66,0,0,0,.8-1.51v-.1a1.74,1.74,0,0,1-.7.77c-.49.28-.83.15-.84-.37A1.69,1.69,0,0,1,96.74,87.89Zm0,1.38a1.1,1.1,0,0,0,.56-.86c0-.29-.21-.43-.59-.21a1,1,0,0,0-.53.85c0,.33.21.42.56.22"/><polygon class="cls-11" points="98.83 86.71 98.84 89.5 98.5 89.7 98.49 87.25 97.94 87.57 97.94 87.22 98.83 86.71"/><polygon class="cls-11" points="107.91 81.47 107.92 84.26 107.57 84.46 107.56 82.02 107.02 82.33 107.02 81.98 107.91 81.47"/><path class="cls-11" d="M110,80.26v.27l-.63,1.27c.49-.23.74-.06.74.37a1.69,1.69,0,0,1-.92,1.39,1.05,1.05,0,0,1-.89.17l.16-.4a.84.84,0,0,0,.73-.13,1,1,0,0,0,.57-.82c0-.3-.19-.38-.6-.14l-.2.11v-.28l.61-1.21-1.17.67v-.34Z"/><path class="cls-65" d="M107,87.88a1.57,1.57,0,0,1,1,1.68v0a5.22,5.22,0,0,1-1.06,2.85,1.54,1.54,0,0,1-1-1.64v-.09A5.19,5.19,0,0,1,107,87.88Z"/><path class="cls-66" d="M80.16,84.24v.86l-3,1.75A1.91,1.91,0,0,1,78,85.51Z"/><path class="cls-11" d="M93,78.26c.39-.22.71-.26.86-.06l-.3.46c-.12-.12-.32-.12-.58,0A2,2,0,0,0,92,80.35c0,.43.24.58.71.31a1.73,1.73,0,0,0,.64-.67l.25.16a2.43,2.43,0,0,1-.92,1c-.69.39-1.11.18-1.11-.48A2.89,2.89,0,0,1,93,78.26Z"/><path class="cls-11" d="M95.19,77.61l-.07.48-.1,0a1.23,1.23,0,0,0-.6.94l-.17,1.08-.4.24.34-2.19.38-.22,0,.28A1.56,1.56,0,0,1,95.19,77.61Z"/><path class="cls-11" d="M97,77.45a1.53,1.53,0,0,1,0,.3l-1.37.79c0,.31.17.39.5.2a1.49,1.49,0,0,0,.5-.5l.17.23a2,2,0,0,1-.71.68c-.52.31-.85.15-.85-.38a2.1,2.1,0,0,1,1-1.73C96.66,76.76,97,76.91,97,77.45Zm-1.36.76,1-.57c0-.31-.18-.38-.45-.22a1.19,1.19,0,0,0-.54.79"/><path class="cls-11" d="M100.06,73.94c.15-.09.24,0,.24.1a.55.55,0,0,1-.27.47c-.15.08-.24,0-.24-.12A.55.55,0,0,1,100.06,73.94Z"/><polygon class="cls-11" points="99.4 77.19 99.74 75.01 100.14 74.78 99.8 76.96 99.4 77.19"/><path class="cls-11" d="M101.2,73.72l-.08.5.47-.27-.06.41-.47.27-.16,1s0,.06,0,.09.07.19.21.1a.62.62,0,0,0,.22-.21l.08.31a1.48,1.48,0,0,1-.42.35c-.29.17-.49.09-.5-.24a1,1,0,0,1,0-.16l.16-1-.28.17.06-.41.28-.17.08-.49Z"/><path class="cls-11" d="M104.07,71.85c.39-.22.7-.25.86-.06l-.3.47c-.12-.13-.32-.12-.59,0A2,2,0,0,0,103.1,74c0,.43.25.57.71.3a1.68,1.68,0,0,0,.65-.67l.24.16a2.31,2.31,0,0,1-.92,1c-.68.4-1.1.18-1.1-.48A2.9,2.9,0,0,1,104.07,71.85Z"/><path class="cls-11" d="M106.51,71.1l.4-.23-.34,2.18-.38.22,0-.22a1.55,1.55,0,0,1-.56.55c-.42.25-.76.12-.76-.43a2,2,0,0,1,1-1.72c.27-.16.47-.17.59,0Zm-.75,2.05a1.32,1.32,0,0,0,.6-1.09c0-.31-.17-.41-.46-.24a1.3,1.3,0,0,0-.6,1.09c0,.31.17.4.46.24"/><path class="cls-11" d="M110.18,68.2l.41-.23-.47,3-.39.23,0-.23a1.73,1.73,0,0,1-.56.55c-.43.25-.76.12-.76-.43a2.07,2.07,0,0,1,1-1.72c.27-.16.48-.17.59,0Zm-.87,2.9A1.32,1.32,0,0,0,109.9,70c0-.31-.17-.4-.46-.23a1.3,1.3,0,0,0-.59,1.08c0,.31.17.41.46.24"/><g class="cls-1"><path class="cls-11" d="M91.7,91.93c.48-.28.83-.15.83.36a1.7,1.7,0,0,1-.86,1.38c-.65.38-1,.09-1-.8a2.42,2.42,0,0,1,1.15-2.13,1,1,0,0,1,.6-.18l-.13.39a.72.72,0,0,0-.47.13A1.68,1.68,0,0,0,91,92.6v.1A1.69,1.69,0,0,1,91.7,91.93Zm0,1.43a1.08,1.08,0,0,0,.54-.86c0-.33-.22-.41-.56-.21a1.09,1.09,0,0,0-.56.86c0,.29.21.42.58.21"/><path class="cls-66" d="M80.35,89.47v-.86l3-1.74a1.87,1.87,0,0,1-.83,1.34Z"/><path class="cls-66" d="M81.09,86.82a1.24,1.24,0,0,0,.14-.48l2.14-1.24v1.57l-3,1.75v-.84A2.06,2.06,0,0,0,81.09,86.82Z"/><path class="cls-66" d="M77.13,90.47l3.05-1.76v.86L78,90.85C77.54,91.1,77.18,90.92,77.13,90.47Z"/><polygon class="cls-66" points="80.16 85.29 80.16 86.11 77.12 87.87 77.12 87.05 80.16 85.29"/><path class="cls-67" d="M80.32,84.14V85l3-1.75v.19l-3,1.76V86c.31-.18.78-.32.88.14l2.16-1.25v.19l-2.14,1.24a1.24,1.24,0,0,1-.14.48,2.06,2.06,0,0,1-.74.76v.84l3-1.75v.19l-3,1.75v.86l-.16.1v-.86l-3.05,1.76v-.19l3.05-1.77v-.83l-3.05,1.76v-.19l3.13-1.81a1.75,1.75,0,0,0,.7-.67.77.77,0,0,0,.1-.41c0-.51-.58-.24-.76-.14l0,0-.09.06-3,1.75v-.19l3-1.75v-.83l-3,1.76v-.2l3-1.75v-.86Z"/><path class="cls-11" d="M94.27,90.67c.28,0,.44.11.44.43a1.75,1.75,0,0,1-1,1.38c-.59.34-1,.24-1-.27a1.35,1.35,0,0,1,.42-.92c-.22,0-.34-.13-.34-.41a1.6,1.6,0,0,1,.87-1.26c.53-.3.89-.22.89.25A1.16,1.16,0,0,1,94.27,90.67Zm-.53,1.49a1.1,1.1,0,0,0,.62-.87c0-.31-.24-.37-.62-.14a1,1,0,0,0-.61.85c0,.31.22.38.61.16m0-2.22a1,1,0,0,0-.53.76c0,.28.2.34.54.14a1,1,0,0,0,.54-.76c0-.28-.22-.32-.55-.14"/><path class="cls-66" d="M80.33,85.2l3-1.76v1.47l-2.16,1.25c-.1-.46-.57-.32-.88-.14Z"/><path class="cls-66" d="M82.53,82.87c.43-.25.79-.07.83.38l-3,1.75v-.86Z"/><polygon class="cls-66" points="80.18 87.68 80.18 88.51 77.13 90.28 77.13 89.44 80.18 87.68"/><path class="cls-66" d="M81,86.77a1.75,1.75,0,0,1-.7.67l-3.13,1.81V88.06l3-1.76.09,0,0,0c.18-.1.71-.37.76.14A.77.77,0,0,1,81,86.77Z"/></g><polygon class="cls-11" points="78.58 98.4 78.59 101.19 78.24 101.39 78.24 98.95 77.69 99.27 77.69 98.92 78.58 98.4"/><path class="cls-11" d="M79.88,97.62c.51-.29.83-.18.84.3a2.05,2.05,0,0,1-.4,1.1l-.74,1.25,1.24-.71v.34l-1.75,1v-.27l1-1.67a1.59,1.59,0,0,0,.31-.81c0-.29-.18-.36-.52-.17a1.59,1.59,0,0,0-.62.66L79,98.56A2.3,2.3,0,0,1,79.88,97.62Z"/><path class="cls-11" d="M82.67,96v.28L82,97.58c.49-.22.74,0,.74.38a1.67,1.67,0,0,1-.92,1.38,1.1,1.1,0,0,1-.89.18l.16-.41a.83.83,0,0,0,.73-.12,1,1,0,0,0,.57-.83c0-.29-.18-.38-.6-.14l-.2.11v-.27l.61-1.22-1.17.68V97Z"/><polygon class="cls-11" points="84.67 94.89 83.48 97.34 84.41 96.8 84.41 96.19 84.74 96.01 84.74 96.61 85.2 96.35 85.2 96.69 84.74 96.96 84.74 97.64 84.41 97.83 84.4 97.15 83.06 97.93 83.05 97.65 84.29 95.11 84.67 94.89"/><path class="cls-11" d="M87.9,93v.35L86.83,94l-.07.8.27-.15c.73-.42,1-.24,1,.26a1.7,1.7,0,0,1-.92,1.4,1.13,1.13,0,0,1-.89.17l.15-.4a.84.84,0,0,0,.73-.13,1,1,0,0,0,.58-.83c0-.31-.18-.41-.74-.08l-.55.32.12-1.54Z"/><polygon class="cls-11" points="89.91 91.86 88.72 94.31 89.66 93.77 89.66 93.17 89.98 92.98 89.98 93.58 90.45 93.32 90.45 93.66 89.98 93.93 89.99 94.61 89.65 94.81 89.65 94.12 88.3 94.9 88.3 94.62 89.53 92.08 89.91 91.86"/><path class="cls-11" d="M100.36,85.8c.56-.33,1,0,1,.86a2.29,2.29,0,0,1-1,2c-.57.33-1,.06-1-.85A2.29,2.29,0,0,1,100.36,85.8Zm0,2.5a1.59,1.59,0,0,0,.64-1.44c0-.72-.26-.92-.64-.71a1.58,1.58,0,0,0-.64,1.45c0,.71.26.92.64.7"/><polygon class="cls-11" points="102.42 84.64 102.43 87.43 102.08 87.63 102.08 85.18 101.53 85.5 101.53 85.16 102.42 84.64"/><polygon class="cls-11" points="104.64 83.36 104.64 86.15 104.3 86.35 104.29 83.91 103.75 84.22 103.74 83.88 104.64 83.36"/><path class="cls-39" d="M105.5,88.16l0,0a1.88,1.88,0,0,1,1.4-.25,5.19,5.19,0,0,0-1.06,2.85v.09a1.54,1.54,0,0,0,1,1.64,4.49,4.49,0,0,1-1.36,1.26l-.05,0c-1.34.74-2.4.08-2.37-1.47A5.31,5.31,0,0,1,105.5,88.16Z"/><path class="cls-68" d="M108.3,86.61l.06,0c1.33-.73,2.4-.08,2.37,1.48a5.34,5.34,0,0,1-2.41,4.12l-.06,0a1.84,1.84,0,0,1-1.39.25,5.22,5.22,0,0,0,1.06-2.85v0a1.57,1.57,0,0,0-1-1.68A4.5,4.5,0,0,1,108.3,86.61Z"/><path class="cls-11" d="M105.93,82.58c.51-.3.84-.18.84.29a2.05,2.05,0,0,1-.4,1.11l-.74,1.25,1.25-.72v.35l-1.74,1V85.6l1-1.67a1.54,1.54,0,0,0,.3-.81c0-.29-.17-.37-.52-.17a1.56,1.56,0,0,0-.61.66l-.24-.1A2.32,2.32,0,0,1,105.93,82.58Z"/><path class="cls-11" d="M108.44,70l-.07.48-.1,0a1.25,1.25,0,0,0-.6.94l-.16,1.08-.41.23.34-2.18.38-.22,0,.28A1.61,1.61,0,0,1,108.44,70Z"/><g class="cls-69"><polygon class="cls-70" points="78.28 65.37 82.31 67.67 78.31 74.6 78.3 72.55 80.53 68.7 78.29 67.42 78.28 65.37"/><polygon class="cls-71" points="74.53 67.54 78.56 69.83 74.56 76.77 74.55 74.72 76.78 70.86 74.54 69.59 74.53 67.54"/><polygon class="cls-72" points="70.78 69.7 74.81 72 70.81 78.94 70.8 76.88 73.03 73.03 70.79 71.75 70.78 69.7"/><polygon class="cls-73" points="82.03 63.21 86.06 65.5 82.06 72.44 82.05 70.39 84.28 66.53 82.04 65.26 82.03 63.21"/><polygon class="cls-74" points="85.78 61.04 89.82 63.34 85.81 70.27 85.8 68.22 88.03 64.37 85.79 63.09 85.78 61.04"/><polygon class="cls-75" points="89.53 58.87 93.56 61.17 89.56 68.11 89.56 66.06 91.78 62.2 89.54 60.92 89.53 58.87"/><polygon class="cls-76" points="93.28 56.71 97.32 59 93.31 65.94 93.31 63.89 95.53 60.04 93.29 58.76 93.28 56.71"/><polygon class="cls-77" points="100.78 52.38 104.82 54.67 100.81 61.61 100.81 59.56 103.03 55.7 100.79 54.43 100.78 52.38"/><polygon class="cls-78" points="97.04 54.54 101.07 56.84 97.06 63.78 97.06 61.72 99.28 57.87 97.04 56.59 97.04 54.54"/><polygon class="cls-79" points="104.54 50.21 108.57 52.51 104.56 59.45 104.56 57.39 106.78 53.54 104.54 52.26 104.54 50.21"/></g><path class="cls-80" d="M19.75,86c-5,2.89-9,9.88-9,15.62s4.08,8.06,9.07,5.17,9-9.87,9-15.62S24.74,83.12,19.75,86Z"/><path class="cls-68" d="M5,85.41c-.45.26-.86,1.09-.53,1.45l14.62,16.19a.42.42,0,0,0,.53,0,1.45,1.45,0,0,0,.56-.74L25.34,87c.23-.68-.15-1-.58-.72a1.44,1.44,0,0,0-.44.47L20.7,93.06a1.36,1.36,0,0,1-.45.47.44.44,0,0,1-.45,0L5.41,85.37A.44.44,0,0,0,5,85.41Z"/><line class="cls-81" x1="280.74" y1="206.92" x2="279.45" y2="206.17"/><line class="cls-82" x1="276.84" y1="204.66" x2="69.33" y2="84.61"/><line class="cls-81" x1="68.03" y1="83.85" x2="66.73" y2="83.1"/><path class="cls-68" d="M152.32,130.88a3.24,3.24,0,1,0-3.24,3.24A3.24,3.24,0,0,0,152.32,130.88Z"/><path class="cls-68" d="M284,206.92a3.25,3.25,0,1,0-3.25,3.24A3.25,3.25,0,0,0,284,206.92Z"/><path class="cls-68" d="M70,83.1a3.24,3.24,0,1,0-3.24,3.24A3.24,3.24,0,0,0,70,83.1Z"/></g></g></g></svg>