<svg xmlns="http://www.w3.org/2000/svg" viewBox="0 0 18.89 12.5"><defs><style>.cls-1{fill:#5a2bf7;stroke:#5a2bf7;stroke-miterlimit:10;stroke-width:0.5px;}</style></defs><title>camion</title><g id="Capa_2" data-name="Capa 2"><g id="OBJECTS"><path class="cls-1" d="M18.63,9.43c-.07-.37-.71-3.59-.86-4.06a8.71,8.71,0,0,0-2.42-3.44A5.57,5.57,0,0,0,12,.25H2.7a.87.87,0,0,0-.87.87V2.49H1.18a.43.43,0,0,0-.42.43.42.42,0,0,0,.42.43h.65v1H.68a.43.43,0,1,0,0,.85H1.83V9.51a.87.87,0,0,0,.87.87H3.76a2.2,2.2,0,0,0,4.35,0H12a2.2,2.2,0,0,0,4.35,0h1.39a.87.87,0,0,0,.87-.87A.19.19,0,0,0,18.63,9.43ZM16.91,5.5h-4.4V1.18A8.1,8.1,0,0,1,16.91,5.5Zm-11,5.9a1.35,1.35,0,1,1,1.35-1.35A1.35,1.35,0,0,1,5.94,11.4Zm8.27,0a1.35,1.35,0,1,1,1.34-1.35A1.34,1.34,0,0,1,14.21,11.4Zm3.53-1.87h-1.4a2.2,2.2,0,0,0-4.27,0h-4a2.2,2.2,0,0,0-4.28,0H2.7l0,0V5.22H7.91a.43.43,0,1,0,0-.85H2.68v-1H5.09a.43.43,0,0,0,.43-.43.44.44,0,0,0-.43-.43H2.68V1.12a0,0,0,0,1,0,0h9V5.93a.43.43,0,0,0,.42.43h5c.18.83.43,2.16.64,3.14T17.74,9.53Z"/></g></g></svg>